<?xml version="1.0" encoding="utf-8" ?>
<svg xmlns="http://www.w3.org/2000/svg" xmlns:xlink="http://www.w3.org/1999/xlink" width="1024" height="1024">
	<path fill="#DCBEBC" d="M226.895 600.498C228.206 600.653 229.54 600.931 230.789 601.366C238.735 604.13 245.238 616.67 248.435 623.848C250.534 628.559 252.531 634.332 250.447 639.365C248.988 642.89 246.369 644.249 242.983 645.617C241.413 645.556 239.753 645.353 238.331 644.649C236.88 643.931 235.822 642.963 234.874 641.656C232.637 638.572 219.713 614.945 218.62 611.639C217.975 609.686 217.485 607.935 218.519 606.025C220.202 602.915 223.697 601.477 226.895 600.498Z"/>
	<path fill="#DCBEBC" d="M257.194 566.561C259.089 566.472 260.847 566.84 262.559 567.663C273.014 572.685 288.338 592.621 291.72 603.62C292.586 606.435 292.874 609.758 291.37 612.42C289.97 614.895 287.738 615.995 285.122 616.802C283.302 616.703 281.483 616.557 279.739 615.991C278.265 615.513 277.368 614.688 276.374 613.526C272.056 608.477 268.95 602.422 264.973 597.109C261.266 592.156 256.819 587.801 252.996 582.936C251.901 581.543 249.452 578.808 248.986 577.154C248.597 575.767 248.868 573.861 249.428 572.551C250.867 569.18 253.968 567.758 257.194 566.561Z"/>
	<path fill="#DCBEBC" d="M781.547 585.099C783.389 584.837 785.151 584.677 786.99 585.069C789.325 585.568 791.374 586.876 792.606 588.952C794.137 591.532 793.909 595.052 793.124 597.832C792.626 599.594 791.706 600.974 790.507 602.341C786.431 606.985 781.275 610.619 776.634 614.668C771.069 619.523 765.975 625.221 759.469 628.829C756.849 629.598 754.252 629.295 751.762 628.13C750.177 627.387 749.249 626.033 748.772 624.399C747.221 619.086 749.791 612.796 752.405 608.184C758.865 596.788 768.965 588.656 781.547 585.099Z"/>
	<path fill="#DCBEBC" d="M747.606 554.564C749.154 554.527 750.669 554.628 752.139 555.145C754.359 555.926 756.835 557.498 757.689 559.811C758.187 561.16 758.076 562.551 757.527 563.858C754.357 571.394 741.839 581.249 736.156 587.86C730.938 593.932 726.457 600.765 720.8 606.434C718.955 608.283 717.163 609.503 714.786 610.603C712.214 611.038 709.488 610.933 707.177 609.598C705.454 608.602 704.448 607.071 704.044 605.133C702.557 597.994 707.587 588.654 711.25 582.793C719.857 569.02 731.542 558.308 747.606 554.564Z"/>
	<path fill="#234146" d="M219.795 770.032C217.657 759.491 217.812 747.623 221.139 737.34C223.16 731.091 226.965 723.359 233.181 720.443C239.589 717.437 244.984 720.571 250.916 722.838C252.858 723.58 255.206 724.735 257.208 723.846C259.036 718.232 256.436 707.368 256.109 701.163C255.906 697.316 256.2 693.401 256.803 689.599C258.373 679.704 263.135 669.855 271.475 663.958C277.247 659.876 284.285 658.336 291.237 659.667C311.242 663.497 322.927 686 333.482 701.231C331.511 705.331 329.632 709.276 327.142 713.106C314.639 732.339 296.225 749.793 301.242 775.609C306.729 781.679 316.334 785.057 323.23 789.485C330.577 794.202 337.368 800.074 345.423 803.575L346.039 803.307C358.486 797.741 361.856 783.803 377.299 780.527C381.251 779.688 385.163 779.736 389 781.085C398.23 784.33 404.037 794.019 413.518 796.356C424.491 799.06 434.816 788.191 446.293 789.22C457.978 790.267 463.917 801.615 474.785 803.549C477.658 804.06 480.504 803.666 483.181 802.519C496.331 796.883 507.169 773.952 524.437 780.701C530.164 782.941 534.115 787.967 540.203 790.173C541.997 789.737 543.994 789.346 545.617 788.445C549.674 786.191 552.938 782.231 555.906 778.76C564.203 769.058 573.322 757.839 586.82 755.867C590.974 755.26 595.519 755.692 599.159 757.921C606.291 762.288 608.787 769.51 617.452 772.119C623.536 770.616 628.874 767.131 634.885 765.606C639.862 764.344 645.267 765.863 650.061 763.83C652.202 762.923 653.447 761.11 654.616 759.18C658.24 753.193 660.186 746.331 663.494 740.181C672.183 724.023 689.369 712.71 706.848 708.134C714.633 706.097 727.475 706.425 733.995 702.116C745.38 694.987 756.879 681.074 771.79 684.773C778.168 686.356 783.344 691.487 786.581 697.05C790.052 703.014 792.038 715.378 799.45 717.149C802.548 717.889 805.938 717.314 809.064 717.045C818.094 716.27 825.436 718.574 830.73 726.312C834.222 731.415 836.508 738.098 835.137 744.262C833.379 752.17 828.058 757.605 821.393 761.726C807.009 770.62 794.751 767.13 779.585 770.871C773.285 772.425 767.493 775.65 761.525 778.122C750.808 782.561 739.219 785.77 727.747 787.352C720.921 788.293 714.22 788.688 707.329 788.454C692.838 787.962 656.378 782.11 646.869 795.573C646.788 796.427 646.551 796.677 647.156 797.392C650.731 801.613 668.156 797.565 668.494 805.838C668.648 809.6 664.118 814.676 661.459 816.899C661.065 817.228 660.663 817.552 660.249 817.856C642.898 830.601 617.341 822.205 597.394 826.446C571.412 831.971 544.243 849.575 518.273 847.057C494.95 844.797 473.978 832.033 450.291 832.497C437.143 832.755 424.058 836.711 411.3 839.615C382.575 846.152 351.536 853.69 321.88 851.82C313.994 851.323 301.464 850.393 296.049 843.82C294.659 842.133 293.91 840.139 294.283 837.945C294.86 834.545 297.315 831.586 300.108 829.705C302.982 827.769 306.415 826.399 309.547 824.919C309.52 820.943 309.175 816.979 308.882 813.016C297.036 812.658 282.89 812.672 271.223 814.855C257.693 817.386 245.576 824.465 231.331 823.06C218.355 821.779 201.3 814.798 193.038 804.311C190.887 801.581 189.5 798.32 189.99 794.794C191.427 784.459 203.207 780.354 211.155 775.893C214.232 774.166 217.009 772.192 219.795 770.032Z"/>
	<path fill="#FEFEFE" d="M308.882 813.016C312.011 813.068 317.46 812.513 319.761 815.028C320.347 815.669 320.221 816.157 320.303 816.977C318.86 820.76 315.353 822.349 311.898 823.889L309.547 824.919C309.52 820.943 309.175 816.979 308.882 813.016Z"/>
	<path fill="#FEFEFE" d="M510.782 795.535C510.952 795.539 511.122 795.531 511.291 795.547C512.714 795.68 514.192 796.499 515.003 797.695C515.803 798.876 515.828 800.528 515.67 801.897C514.982 807.846 511.396 813.309 506.728 816.859C506.183 816.866 505.308 816.939 504.755 816.791C503.728 816.516 502.623 815.433 502.137 814.492C501 812.293 501.611 809.387 502.27 807.137C503.779 801.99 506.097 798.181 510.782 795.535Z"/>
	<path fill="#FEFEFE" d="M380.015 794.845C381.365 795.148 383.064 795.821 384.002 796.89C385.176 798.227 385.567 799.618 385.537 801.362C385.423 807.929 379.978 814.934 375.445 819.298C374.924 819.468 374.335 819.692 373.782 819.707C372.804 819.732 371.902 819.396 371.172 818.768C370.421 818.123 370.212 816.946 370.205 815.993C370.15 808.657 374.987 799.889 380.015 794.845Z"/>
	<path fill="#FEFEFE" d="M236.781 736.014C237.944 736.41 239.391 736.793 240.379 737.533C241.721 738.537 242.454 740.761 242.751 742.34C244.111 749.563 240.351 757.872 236.446 763.725C234.84 763.798 233.371 762.738 231.99 762.007C231.413 760.287 230.861 758.596 230.653 756.788C229.769 749.117 232.097 742.043 236.781 736.014Z"/>
	<path fill="#FEFEFE" d="M278.695 670.23C280.462 670.622 281.911 671.26 283.224 672.537C286.422 675.649 287.535 680.275 287.599 684.606C287.676 689.831 286.345 693.716 282.707 697.432C281.117 696.662 279.646 695.898 278.383 694.637C275.011 691.268 273.451 686.437 273.535 681.737C273.622 676.941 275.346 673.534 278.695 670.23Z"/>
	<path fill="#FEFEFE" d="M760.602 699.952C762.72 699.984 764.905 700.108 766.696 701.38C767.787 702.155 768.43 703.23 768.574 704.559C769.276 711.02 761.482 718.868 757.577 723.54C756.921 723.958 756.194 724.463 755.456 724.714C754.168 725.153 753.251 725.038 752.043 724.528C750.454 722.469 750.747 719.666 751.054 717.227C751.949 710.121 754.955 704.328 760.602 699.952Z"/>
	<path fill="#FEFEFE" d="M707.8 721.995C709.511 721.964 711.036 721.905 712.421 723.1C713.39 723.936 713.603 725.037 713.563 726.257C713.334 733.409 702.095 746.201 696.798 750.883C696.355 751.095 695.542 751.561 695.022 751.627C693.751 751.789 693.427 751.571 692.499 750.843C691.317 747.732 692.516 743.88 693.488 740.814C696.01 732.855 700.191 725.891 707.8 721.995Z"/>
	<path fill="#FEFEFE" d="M584.859 770.141C586.389 770.476 587.263 770.705 588.456 771.816C588.891 772.731 589.122 773.304 589.08 774.344C588.78 781.681 570.561 802.709 564.842 808.407C563.74 808.525 563.142 808.861 562.178 808.21C561.037 807.44 560.652 806.735 560.422 805.387C559.318 798.933 566.119 786.152 569.954 781.009C573.537 776.202 578.722 771.036 584.859 770.141Z"/>
	<path fill="#DCBEBC" d="M483.286 627.833C504.772 619.284 542.95 615.368 566.213 615.734C563.959 626.393 558.753 656.23 564.495 665.106C566.083 667.561 568.65 669.468 571.561 669.973C573.554 670.318 575.543 669.967 577.19 668.759C579.902 666.769 580.931 663.262 581.268 660.076C581.937 653.756 581.445 647.186 581.589 640.828C581.765 633.043 582.646 625.115 583.607 617.387C608.88 618.699 666.029 630.86 688.709 641.469C698.884 646.229 708.488 652.62 716.032 661.011C726.562 672.723 730.631 687.104 733.995 702.116C727.475 706.425 714.633 706.097 706.848 708.134C689.369 712.71 672.183 724.023 663.494 740.181C660.186 746.331 658.24 753.193 654.616 759.18C653.447 761.11 652.202 762.923 650.061 763.83C645.267 765.863 639.862 764.344 634.885 765.606C628.874 767.131 623.536 770.616 617.452 772.119C608.787 769.51 606.291 762.288 599.159 757.921C595.519 755.692 590.974 755.26 586.82 755.867C573.322 757.839 564.203 769.058 555.906 778.76C552.938 782.231 549.674 786.191 545.617 788.445C543.994 789.346 541.997 789.737 540.203 790.173C534.115 787.967 530.164 782.941 524.437 780.701C507.169 773.952 496.331 796.883 483.181 802.519C480.504 803.666 477.658 804.06 474.785 803.549C463.917 801.615 457.978 790.267 446.293 789.22C434.816 788.191 424.491 799.06 413.518 796.356C404.037 794.019 398.23 784.33 389 781.085C385.163 779.736 381.251 779.688 377.299 780.527C361.856 783.803 358.486 797.741 346.039 803.307L345.423 803.575C337.368 800.074 330.577 794.202 323.23 789.485C316.334 785.057 306.729 781.679 301.242 775.609C296.225 749.793 314.639 732.339 327.142 713.106C329.632 709.276 331.511 705.331 333.482 701.231C340.247 694.545 346.828 687.621 354.244 681.642C384.076 657.591 422.596 642.601 459.56 633.856C460.13 645.88 459.025 672.152 467.86 680.696C470.146 682.907 473.136 683.94 476.297 683.861C479.007 683.793 481.341 682.786 483.108 680.709C490.336 672.211 484.548 639.145 483.286 627.833Z"/>
	<path fill="#234146" d="M423.72 670.152C424.814 670.219 425.929 670.278 427.01 670.466C429.919 670.97 432.161 672.68 433.843 675.051C434.898 676.537 435.549 678.39 435.088 680.216C433.575 686.219 424.147 688.385 419.472 691.118C416.297 692.975 413.553 695.542 410.34 697.447C407.199 697.721 403.757 697.412 401.061 695.596C399.91 694.821 399.138 693.707 398.88 692.338C398.267 689.082 400.185 685.074 402.047 682.52C406.639 676.222 416.101 671.325 423.72 670.152Z"/>
	<path fill="#234146" d="M627.713 695.583C629.993 695.367 632.807 695.275 635.05 695.695C638.734 696.383 642.417 698.469 644.467 701.667C645.683 703.564 646.326 705.93 645.776 708.159C645.368 709.81 644.307 711.19 642.848 712.053C638.951 714.358 634.617 713.137 630.523 712.211C627.176 715.797 625.246 720.11 623.082 724.444C621.504 726.306 619.557 728.065 617.339 729.131C615.67 729.932 614.013 730.071 612.259 729.399C610.206 728.612 608.807 726.223 608.188 724.236C606.667 719.358 608.238 714.078 610.524 709.702C614.322 702.433 619.962 698.052 627.713 695.583Z"/>
	<path fill="#234146" d="M366.865 733.609C371.33 733.064 375.514 733.356 379.469 735.726C381.561 736.979 383.202 738.909 383.689 741.341C384.124 743.512 383.473 745.82 382.178 747.586C378.119 753.122 372.092 751.409 366.232 752.642C361.165 753.708 358.403 758.97 355.822 762.955C354.363 764.658 352.993 765.766 350.84 766.486C349.002 767.1 347.256 767.054 345.547 766.067C343.278 764.757 341.923 762.247 341.436 759.739C340.519 755.022 342.395 749.908 345.039 746.054C350.339 738.327 358.021 735.339 366.865 733.609Z"/>
	<path fill="#234146" d="M528.974 687.169C533.46 686.802 538.931 688.065 542.507 690.807C544.837 692.594 546.596 695.194 546.906 698.163C547.111 700.124 546.641 702.01 545.358 703.528C540.899 708.801 532.704 706.177 526.719 706.539L525.937 706.59L525.49 706.917C522.494 709.059 520.115 711.766 517.613 714.446C515.656 715.97 513.673 717.189 511.209 717.696C509.355 718.078 507.494 717.914 505.91 716.79C503.725 715.239 502.597 712.567 502.328 709.967C501.865 705.497 504.045 701.317 506.848 697.994C512.532 691.256 520.332 687.894 528.974 687.169Z"/>
	<path fill="#234146" d="M446.013 726.549C452.774 726.338 460.3 726.4 466.18 730.238C468.486 731.744 470.327 733.806 470.85 736.578C471.305 738.991 470.795 742.334 469.307 744.338C465.958 748.846 456.879 745.699 451.963 746.566C446.922 747.456 444.689 750.496 441.907 754.385C440.875 755.814 439.824 757.116 438.453 758.239C436.296 760.006 433.742 761.17 430.91 760.774C427.395 760.284 425.609 757.835 423.631 755.196C422.957 750.165 423.233 746.198 425.644 741.61C429.918 733.474 437.554 729.173 446.013 726.549Z"/>
	<path fill="#234146" d="M632.458 642.602C640.991 641.544 649.062 643.693 656.174 648.472C661.413 651.992 666.847 657.532 667.94 663.953C668.304 666.092 668.12 668.615 666.766 670.397C665.781 671.694 664.395 672.404 662.785 672.6C657.221 673.277 652.117 669.045 648.122 665.75C646.492 664.367 644.789 663.04 642.861 662.09C634.041 657.745 630.576 668.238 623.773 670.435C622.155 670.957 620.591 670.766 619.122 669.918C616.872 668.617 614.779 666.004 614.101 663.486C613.178 660.056 614.556 656.531 616.36 653.642C620.123 647.617 625.641 644.102 632.458 642.602Z"/>
	<path fill="#079966" d="M452.87 296.628C453.474 295.236 453.981 293.835 454.384 292.37C455.116 289.715 455.434 286.954 453.88 284.513C451.476 280.738 443.197 280.055 439.036 278.891C431.233 276.708 423.221 271.623 419.268 264.361C416.68 259.607 416.183 253.618 417.93 248.49C418.587 246.562 419.79 244.902 421.69 244.057C429.757 240.473 440.435 251.477 447.513 254.158C449.578 254.941 452.492 255.793 454.581 254.717C455.401 254.294 455.261 253.94 455.483 253.123C453.443 247.254 442.732 243.885 438.078 239.941C434.427 236.845 431.453 232.586 431.141 227.682C430.955 224.769 431.57 219.864 433.81 217.721C440.466 211.353 449.17 223.167 455.564 223.253C457.838 220.979 456.932 212.894 457.251 209.596C457.895 202.936 466.981 174.072 472.658 170.642C473.618 170.062 474.826 170.197 475.769 170.751C485.662 176.567 481.787 206.27 484.701 216.424C484.761 216.633 484.826 216.84 484.888 217.048C489.945 215.217 494.731 212.188 499.919 210.841C502.655 210.131 505.703 210.119 508.151 211.706C510.01 212.912 511.277 214.882 511.641 217.065C514.069 231.634 486.152 237.974 480.95 246.754C480.268 247.905 480.229 248.107 480.588 249.29C485.669 252.437 495.483 242.301 499.718 239.442C503.588 236.829 508.019 234.38 512.651 233.51C516.108 232.861 519.797 233.305 522.703 235.423C524.079 236.426 525.008 237.85 525.206 239.556C526.278 248.811 507.838 264.431 500.532 268.373C493.853 271.976 483.004 272.261 478.184 278.608C477.486 279.526 477.023 280.703 477.351 281.86C477.824 283.528 479.216 284.872 480.774 285.559C494.138 291.448 516.326 269.572 528.34 264.643C531.908 263.18 536.222 262.315 539.896 263.952C541.487 264.661 542.687 265.843 543.286 267.491C544.348 270.418 543.195 273.885 541.887 276.534C535.554 289.357 519.507 299.954 506.579 304.979C499.352 307.787 491.893 309.431 484.564 311.854C480.805 313.097 474.835 315.707 473.277 319.591C472.808 320.761 472.75 321.822 473.37 322.96C474.546 325.116 477.381 326.493 479.549 327.371C499.725 335.542 529.118 301.421 544.634 305.377C546.269 305.794 547.516 306.592 548.348 308.11C549.74 310.648 549.955 313.174 549.127 315.932C548.137 319.228 545.967 322.188 543.581 324.619C537.202 331.119 516.648 344.469 507.992 347.667C498.142 351.306 486.914 352.782 477.608 357.811C474.416 359.536 471.876 361.608 470.871 365.215C469.746 369.254 470.507 374.327 472.568 377.954C473.554 379.691 475.141 381.137 477.104 381.639C477.875 381.835 478.702 381.924 479.497 381.918C488.595 381.844 492.842 369.738 500.447 366.375C506.501 363.698 513.11 366.714 519.12 363.112C526.434 358.728 530.906 350.821 538.645 346.75C541.436 345.283 545.613 343.692 548.764 344.85C551.137 345.722 553.384 348.648 554.41 350.857C555.573 353.359 555.597 355.942 554.638 358.518C551.918 365.823 544.256 369.735 538.258 373.996C533.04 377.702 530.092 383.825 524.59 387.181C518.34 390.993 509.696 391.438 502.782 393.812C498.089 395.423 494.244 399.018 489.541 400.63C485.433 402.038 480.906 401.694 476.907 403.578C474.984 404.485 473.211 405.568 472.584 407.731C471.905 410.071 472.972 412.968 474.053 415.015C476.611 419.861 481.051 423.142 486.312 424.569C497.265 427.538 498.903 414.81 505.547 409.731C511.487 405.19 519.151 408.536 525.764 406.63C533.599 404.371 539.679 398.015 546.739 394.178C551.378 391.657 557.724 389.649 562.937 391.352C564.763 391.948 566.227 393.198 567.068 394.929C568.44 397.754 567.934 400.988 566.806 403.801C563.254 412.662 554.807 419.334 546.267 423.057C542.297 424.788 537.952 426.055 534.188 428.198C530.29 430.418 527.089 433.985 522.724 435.335C517.901 436.828 512.628 435.516 507.815 437.02C503.426 438.391 499.977 441.964 495.474 443.219C491.235 444.4 486.637 443.706 482.549 445.589C479.449 447.017 478.028 449.392 476.988 452.553C475.664 456.576 475.458 461.099 477.52 464.909C479.541 468.641 484.256 472.533 488.39 473.605C495.675 475.494 499.456 466.24 504.993 463.333C509.605 460.912 515.272 461.03 519.802 458.295C524.947 455.189 528.856 450.165 534.206 447.039C539.314 444.055 552.277 437.172 557.862 438.91C559.487 439.415 560.753 440.675 561.498 442.178C563.38 445.978 563.079 450.785 561.671 454.678C560.562 457.741 558.736 460.618 556.343 462.835C551.432 467.386 544.592 468.627 539.306 472.558C532.53 477.597 529.336 486.543 520.766 489.345C513.984 491.562 505.617 487.896 499.347 491.065C495.494 493.012 494.496 497.773 491.259 500.309C487.962 502.893 483.491 503.767 479.727 505.509C477.803 506.399 475.242 508.106 474.691 510.287C474.342 511.668 474.707 513.017 475.378 514.228C478.358 519.605 483.575 523.065 489.353 524.706C493.668 525.933 498.805 526.513 503.112 524.991C510.18 522.495 513.607 514.911 520.113 511.281C524.473 508.848 529.539 508.491 534.245 506.999C538.811 505.55 542.902 503.203 547.052 500.862C545.373 498.534 543.601 496.15 542.771 493.363C542.179 491.372 542.239 489.497 543.387 487.697C544.663 485.695 547.495 484.64 549.694 484.164C557.691 482.433 573.519 487.257 578.71 493.716C583.618 499.822 584.416 507.997 591.728 512.45C594.149 513.924 597.471 515.954 600.407 515.1C602.21 514.576 604.291 513.091 605.002 511.311C607.338 505.468 596.809 499.1 593.877 495.373C590.466 491.038 587.913 485.874 583.906 482.021C577.916 476.259 566.73 471.773 564.343 463.266C563.496 460.248 564.299 457.104 565.898 454.48C567.108 452.496 569.005 450.577 571.351 450.063C577.348 448.747 599.25 464.135 603.883 468.687C608.785 473.502 610.6 481.416 617.097 484.847C618.289 485.477 619.614 485.735 620.894 485.158C623.46 484.001 624.316 480.895 625.115 478.473C621.554 467.489 614.116 457.338 605.371 449.893C595.948 441.871 583.83 436.492 580.755 423.481C581.173 421.598 581.598 419.722 582.642 418.07C583.688 416.416 585.332 415.183 587.276 414.832C589.768 414.383 592.421 415.213 594.697 416.167C599.37 418.129 603.124 421.522 607.446 424.055C613.148 427.397 619.93 429.308 624.77 433.983C629.122 438.187 630.948 445.327 636.088 448.66C637.469 449.555 638.995 450.049 640.628 449.486C642.175 448.952 643.411 447.582 644.122 446.147C645.351 443.664 646.131 440.214 645.408 437.472C642.735 427.333 624.909 412.72 620.541 400.075C619.681 397.585 619.489 394.928 620.762 392.543C622.628 389.045 626.217 387.821 629.738 386.642C639.029 389.354 648.362 397.471 652.454 406.289C654.125 409.891 655.344 414.371 657.896 417.457C659.018 418.814 660.861 420.204 662.654 420.32L663.588 419.395C665.318 411.186 651.16 390.922 650.791 378.791C650.716 376.345 651.279 373.982 653.041 372.197C654.964 370.249 657.832 369.409 660.511 369.379C676.519 369.198 673.173 388.061 680.507 395.085L681.177 394.955C687.122 386.864 676.74 376.598 678.616 367.958C679.262 364.983 681.795 361.711 684.455 360.26C685.903 359.47 687.527 359.258 689.091 359.864C694.185 361.837 696.828 369.055 699.038 373.685L700.457 371.918C708.339 362.282 723.6 347.714 736.888 346.782C738.72 346.654 740.715 346.94 742.031 348.35C743.131 349.529 743.377 351.302 743.271 352.853C742.391 365.676 720.999 383.263 711.82 391.244C719.072 394.653 727.218 397.978 731.239 405.395C732.263 407.284 733.888 410.433 732.945 412.616C728.9 421.98 696.486 408.605 688.121 413.183C687.523 414.077 687.09 414.452 687.486 415.589C690.347 423.816 711.762 424.773 718.843 427.33C722.875 428.786 726.386 431.424 728.161 435.417C729.086 437.498 729.55 440.02 728.538 442.157C727.46 444.434 725.079 445.572 722.729 446.075C714.099 447.919 694.763 444.074 685.842 442.08C681.032 441.005 673.791 437.268 668.969 438.902C668.005 439.86 667.888 440.09 667.515 441.4C668.382 442.972 669.267 443.845 670.939 444.479C675.758 446.309 681.263 446.73 686.265 448.076C694.285 450.234 702.361 454.21 709.708 458.095C713.713 460.213 720.527 463.65 721.764 468.349C722.176 469.914 721.856 471.428 721.029 472.795C719.352 475.568 715.69 476.522 712.676 476.808C705.573 477.483 680.557 473.321 673.307 471.394C669.805 470.463 658.915 465.678 656.098 466.405C655.195 467.774 654.694 468.692 654.45 470.323C654.939 472.071 655.701 472.826 657.334 473.577C660.999 475.262 665.799 475.754 669.723 476.901C680.397 480.021 700.441 487.081 707.528 495.562C708.938 497.249 710.322 499.595 709.941 501.897C709.571 504.131 708.132 505.887 706.342 507.205C699.055 512.57 678.629 500.627 670.285 498.863C664.849 497.715 659.012 498.355 653.488 497.624C649.156 497.05 644.971 495.488 640.655 494.932C637.949 494.583 633.914 494.441 631.742 496.461C630.525 497.593 629.945 498.904 629.987 500.553C630.08 504.178 632.818 507.062 635.879 508.64C640.544 511.044 646.587 511.218 651.656 512.57C660.946 515.05 682.768 523.109 689.291 529.91C691.181 531.881 692.682 533.931 692.458 536.786C692.284 539.008 691.402 541.195 689.628 542.603C678.296 551.597 635.445 530.862 620.454 529.94C618.01 529.79 614.477 529.833 612.63 531.774C611.534 532.927 611.004 534.289 611.123 535.89C611.27 537.866 612.247 539.691 613.474 541.208C620.133 549.444 629.833 543.633 638.2 546.871C645.122 549.55 650.217 555.582 656.509 559.391C661.294 562.288 668.218 563.95 672.255 567.652C674.124 569.365 675.34 571.62 675.349 574.191C675.357 576.698 674.191 579.438 672.357 581.152C663.117 589.789 639.998 572.287 630.815 569.095C626.444 567.575 621.468 567.532 616.882 567.31C611.047 567.028 600.092 565.134 595.712 569.453C594.785 570.367 594.159 571.587 594.253 572.92C594.383 574.756 595.821 576.14 597.285 577.073C602.19 580.197 607.196 577.958 612.331 576.749C618.531 575.29 621.869 575.795 627.309 579.22C630.96 581.518 634.305 584.361 637.799 586.89C642.629 590.387 657.155 599.006 657.959 605.397C658.157 606.976 657.801 608.39 656.694 609.573C654.935 611.453 651.779 612.302 649.326 612.676C632.816 615.194 627.122 599.681 613.751 596.632C605.433 594.735 595.05 598.231 586.488 598.759C585.254 604.906 584.549 611.188 583.607 617.387C582.646 625.115 581.765 633.043 581.589 640.828C581.445 647.186 581.937 653.756 581.268 660.076C580.931 663.262 579.902 666.769 577.19 668.759C575.543 669.967 573.554 670.318 571.561 669.973C568.65 669.468 566.083 667.561 564.495 665.106C558.753 656.23 563.959 626.393 566.213 615.734C542.95 615.368 504.772 619.284 483.286 627.833C484.548 639.145 490.336 672.211 483.108 680.709C481.341 682.786 479.007 683.793 476.297 683.861C473.136 683.94 470.146 682.907 467.86 680.696C459.025 672.152 460.13 645.88 459.56 633.856L459.588 621.119C455.875 620.773 452.279 620.317 448.758 619.038C442.85 616.894 437.158 613.013 430.749 612.592C424.826 612.202 419.907 614.604 414.519 616.63C405.574 619.992 394.869 618.525 385.987 615.418C383.141 614.422 379.469 612.779 378.191 609.818C377.507 608.235 377.751 606.537 378.477 605.016C379.69 602.479 382.09 600.118 384.239 598.361C393.842 590.507 402.726 594.224 413.319 591.721C418.148 590.579 421.464 586.222 426.807 586.16C434.234 586.075 442.524 593.739 449.846 590.592C452.581 589.417 454.244 586.479 455.209 583.808C456.695 579.694 457.334 574.159 455.24 570.132C454.385 568.487 452.982 567.2 451.124 566.844C444.743 565.622 437.305 572.694 430.562 573.336C423.983 573.962 418.306 568.203 411.789 567.508C405.919 566.881 402.032 570.825 396.635 571.691C390.998 572.595 375.564 567.372 369.517 565.523C364.163 563.887 356.792 560.494 354.299 555.228C353.585 553.721 353.445 552.131 354.101 550.559C357.931 541.37 376.995 542.038 385.046 542.642C390.187 543.027 395.582 544.357 400.728 543.912C406.945 543.375 412.445 539.978 418.892 540.337C427.66 540.825 438.451 548.603 447.063 544.453C449.775 543.146 451.637 540.333 452.561 537.545C453.945 533.375 453.35 528.997 451.405 525.107C449.035 520.367 444.854 516.353 439.732 514.774C433.045 512.714 428.653 517.474 423.118 520.205C413.437 524.981 399.051 516.057 389.666 513.207C383.797 511.424 377.726 510.382 371.891 508.455C361.835 505.134 351.035 498.831 346.31 488.904C345.53 487.266 344.782 485.085 345.626 483.333C347.318 479.822 352.1 478.903 355.56 478.52C369.472 476.98 380.252 479.838 392.788 485.453C398.18 487.868 403.757 490.302 409.754 490.537C414.38 490.719 419.317 487.201 423.623 485.591C429.075 486.924 434.992 488.702 440.507 486.641C445.142 484.908 448.41 480.296 450.345 475.899C451.408 473.483 452.393 470.122 451.13 467.586C448.179 461.657 433.147 458.231 427.05 458.865C422.372 459.352 417.93 461.626 413.175 461.618C410.536 461.614 407.758 460.739 405.262 459.92C400.592 458.386 396.102 456.26 391.539 454.437C381.788 450.54 365.536 445.82 360.649 435.522C359.557 433.221 359.365 430.709 360.366 428.34C361.155 426.473 362.708 425.326 364.579 424.657C377.135 420.162 392.082 426.476 403.395 431.461C408.066 430.403 414.063 429.241 418.804 430.069C426.181 431.358 433.366 438.607 440.989 437.324C443.322 436.931 445.328 435.63 446.664 433.68C449.11 430.11 450.816 423.295 449.906 418.993C449.009 414.75 446.043 411.804 442.328 409.798C434.829 405.749 425.76 405.251 417.688 402.814C404.676 398.886 390.85 391.173 379.494 383.757C374.286 380.356 367.8 375.485 366.676 368.973C366.173 366.057 366.544 363.168 368.4 360.79C369.407 359.498 370.627 358.599 372.313 358.475C377.655 358.083 389.14 363.93 394.151 365.992C402.575 369.459 435.941 383.441 443.981 382.277C445.823 382.01 447.483 381.166 448.498 379.562C449.567 377.873 449.629 375.751 449.082 373.874C445.574 361.826 426.917 362.095 417.529 357.147C411.953 354.208 407.877 349.043 402.646 345.537C399.049 343.126 394.716 342.021 390.941 339.866C384.578 336.236 379.634 330.02 377.844 322.871C377.16 320.139 376.956 316.983 378.583 314.525C383.052 307.774 393.782 314.033 399.021 316.529C406.397 320.043 413.794 323.686 420.693 328.081C427.77 332.59 434.756 338.011 442.266 341.746C444.158 342.687 445.184 343.275 447.251 342.868C449.159 341.439 450.021 339.984 450.821 337.738C457.421 319.198 438.523 318.367 426.717 312.31C420.683 309.215 415.928 303.795 410.588 299.67C406.688 296.658 402.173 294.452 398.56 291.057C396.975 289.568 395.499 287.885 394.623 285.87C393.835 284.057 393.625 282.161 394.45 280.321C395.862 277.175 399.083 275.837 402.082 274.678C412.401 275.496 429.936 284.679 439.43 289.794C443.788 292.142 448.178 295.023 452.87 296.628ZM483.286 627.833C504.772 619.284 542.95 615.368 566.213 615.734C569.168 601.855 571.78 587.902 575.131 574.107C568.819 571.705 562.986 569.108 557.638 564.919C558.461 569.416 558.676 572.872 556.03 576.919C547.115 590.555 525.326 585.735 512.793 593.677C506.984 597.357 502.056 607.384 495.053 608.311C491.585 608.769 483.903 607.543 481.777 610.845C479.536 614.326 482.413 623.804 483.286 627.833ZM524.595 544.5C515.711 551.432 506.981 549.219 496.555 549.499C493.25 552.145 491.305 555.612 488.426 558.604C485.141 562.018 478.218 563.554 477.711 569.043C477.463 571.723 478.871 574.26 480.609 576.192C483.119 578.982 486.937 581.303 490.773 581.414C493.129 581.483 494.899 580.572 496.529 578.932C496.815 578.643 497.081 578.334 497.349 578.028C499.87 575.163 502.374 572.045 505.947 570.453C510.454 568.445 515.642 569.728 520.245 568.212C527.303 565.887 534.384 560.313 541.789 559.691C543.92 559.513 546.123 559.625 548.255 559.703C548.939 559.728 548.646 559.728 549.384 559.676C543.369 557.686 533.417 555.523 529.024 550.752C527.289 548.869 526.474 546.227 524.595 544.5ZM557.408 505.375C556.98 512.908 555.933 518.513 550.137 523.877C545.537 528.135 539.397 530.978 534.146 534.394C548.453 534.602 559.047 536.571 570.488 545.375C573.914 548.275 576.829 550.558 581.174 551.993C583.512 550.839 585.577 550.027 586.459 547.375C587.277 544.915 586.342 542.35 585.092 540.219C580.369 532.167 571.68 527.827 566.005 520.719C562.362 516.157 561.492 509.566 557.408 505.375Z"/>
</svg>
