<?xml version="1.0" encoding="utf-8" ?>
<svg xmlns="http://www.w3.org/2000/svg" xmlns:xlink="http://www.w3.org/1999/xlink" width="1024" height="1024">
	<path fill="#F66698" d="M176.072 239.659C177.392 239.656 178.695 239.703 180.001 239.904C182.011 240.214 183.721 240.947 184.871 242.708C188.513 248.281 180.228 267.453 178.494 273.6C176.543 280.517 174.752 287.544 173.666 294.652C176.777 293.564 179.671 292.324 182.56 290.73C187.203 288.167 191.919 283.872 197.376 283.377C199.145 283.216 201.291 283.563 202.608 284.848C203.502 285.721 203.735 286.962 203.631 288.164C202.608 299.998 181.659 300.944 174.567 307.665C171.111 310.94 171.76 317.164 171.689 321.57C174.983 320.151 178.05 318.342 181.013 316.33C185.809 313.073 195.977 303.321 201.845 304.437C203.26 304.706 204.375 305.312 205.217 306.491C206.304 308.01 206.778 310.05 206.378 311.879C204.118 322.208 181.158 328.268 172.929 334.036C172.772 334.146 172.618 334.262 172.463 334.374C171.413 337.026 170.424 341.122 170.462 343.956C170.481 345.352 170.796 345.869 171.779 346.791C176.788 347.635 199.197 326.816 209.2 325.044C210.973 324.73 212.943 324.772 214.373 326.022C215.353 326.879 216.107 328.473 216.172 329.783C216.65 339.51 182.039 350.735 174.16 358.992C168.808 364.6 169.022 370.956 169.104 378.174C173.84 375.447 178.588 372.678 183.197 369.739C190.441 365.118 198.264 358.329 206.813 356.468C209.235 355.941 212.13 355.628 214.27 357.149C215.581 358.081 216.482 360.079 216.404 361.668C215.841 373.178 178.776 381.857 169.216 390.102C169.068 390.231 168.922 390.363 168.775 390.493C167.978 395 166.883 400.148 167.632 404.709C167.861 404.966 167.991 405.374 168.319 405.481C172.749 406.921 210.758 376.97 222.219 379.601C223.793 379.962 224.999 380.893 225.776 382.299C226.566 383.726 226.727 385.277 226.181 386.822C223.087 395.572 183.496 408.352 173.949 413.484C170.328 415.43 167.382 417.992 166.315 422.102C165.6 424.855 165.112 430.651 166.597 433.025C170.745 434.369 200.575 416.714 209.098 414.669C212.208 413.923 217.06 413.3 219.844 415.331C220.948 416.136 221.536 417.412 221.707 418.74C224.075 437.149 173.679 436.302 166.294 447.438C163.469 451.698 164.478 460.394 165.351 465.208C183.057 461.776 197.944 449.387 215.405 444.835C218.747 443.963 223.985 442.751 226.997 444.908C227.998 445.625 228.536 446.712 228.64 447.927C228.92 451.194 226.409 454.394 223.858 456.133C213.217 463.383 171.482 470.195 166.179 477.28C163.253 481.188 163.022 489.035 163.813 493.757C164.05 495.167 164.139 496.009 165.292 496.867C175.009 497.09 202.216 476.865 214.392 475.395C217.505 475.02 222.363 475.131 224.763 477.536C225.609 478.385 226.149 479.402 226.005 480.638C224.657 492.159 189.193 499.162 179.393 502.803C173.512 504.989 168.477 507.574 163.532 511.434C163.271 518.105 161.849 524.188 163.799 530.756C176.6 527.528 188.707 520.356 200.509 514.589C205.625 512.088 212.014 508.646 217.633 507.818C219.688 507.515 221.925 507.937 223.547 509.289C224.836 510.363 225.618 511.853 225.737 513.529C226.857 529.291 171.842 533.332 163.643 544.035C159.718 549.159 161.349 559.946 162.158 566.017C178.039 558.754 196.961 541.735 213.024 538.141C216.228 537.425 220.454 537.089 223.3 539.077C224.561 539.957 225.776 541.67 225.883 543.244C226.819 556.955 171.92 566.095 163.256 578.604C159.697 583.744 160.925 595.296 162.039 601.164C175.012 595.154 201.341 573.063 212.978 573.686C214.93 573.791 216.874 574.41 218.152 575.963C219.022 577.02 219.547 578.271 219.368 579.665C218.098 589.561 187.912 599.907 179.384 604.001C173.428 606.861 167.771 610.168 162.428 614.053C161.288 621.375 161.244 628.866 161.867 636.238C173.723 630.516 199.795 608.495 209.529 607.205C211.508 606.943 213.549 607.674 215.079 608.92C216.458 610.045 217.56 611.653 217.534 613.497C217.353 626.342 171.487 639.139 161.888 647.984C161.786 648.079 161.686 648.177 161.584 648.273C160.957 655.302 160.68 662.358 161.971 669.32C179.129 665.216 199.971 643.557 211.076 641.627C213.234 641.252 216.264 641.152 218.098 642.559C218.93 643.197 219.386 643.993 219.482 645.062C221.129 663.393 170.712 671.828 163.286 682.453C159.686 687.604 161.054 699.594 162.129 705.682C179 700.603 200.384 674.645 215.735 673.713C217.305 673.618 219.051 673.907 220.163 675.133C221.357 676.45 221.688 678.394 221.339 680.087C219.04 691.267 192.099 701.839 182.804 706.571C175.992 710.039 169.24 713.704 162.905 717.99C162.739 723.056 161.171 734.386 164.775 738.238C171.817 738.261 206.155 706.242 215.657 706.121C217.756 706.094 220.988 706.963 222.423 708.57C223.148 709.38 223.333 710.409 223.117 711.453C221.348 719.998 206.653 727.067 199.775 731.048C188.413 736.924 172.004 743.921 162.579 752.382C162.519 761.619 164.463 772.512 162.334 781.499C161.841 783.58 160.757 786.393 158.705 787.429C156.92 788.332 155.101 788.244 153.261 787.567C142.098 783.458 153.67 757.117 146.917 748.856C142.633 743.615 135.772 740.168 130.095 736.597C121.923 731.456 97.9097 717.154 94.6934 708.694C94.1323 707.218 94.1391 705.898 94.8636 704.488C95.7206 702.819 97.4549 701.639 99.226 701.165C106.672 699.174 125.137 719.51 131.035 724.559C135.907 728.729 140.951 732.465 146.484 735.706C146.686 728.417 146.859 721.248 145.784 714.005C130.616 701.052 107.922 690.733 95.1873 676.232C92.4946 673.166 89.8805 669.831 90.3592 665.504C90.5046 664.191 91.1052 663.074 92.2454 662.349C95.1053 660.53 99.3321 662.398 101.843 664.008C108.168 668.063 113.566 674.844 118.945 680.151C124.517 685.646 130.408 690.616 136.668 695.3C138.537 696.698 141.384 699.242 143.721 699.574C144.331 699.66 145.079 699.584 145.487 699.078C147.857 696.138 146.43 684.627 146.274 680.675C132.641 666.574 105.123 655.852 92.6297 641.438C91.1269 639.705 89.1616 636.942 89.6637 634.477C89.905 633.292 90.5752 632.665 91.5762 632.06C102.539 625.434 131.957 663.214 144.713 666.76L145.432 666.013C147.622 658.965 146.578 649.344 146.281 641.959C135.474 632.434 101.77 616.782 96.6284 606.362C95.5923 604.262 94.7708 601.186 95.7575 598.915C96.266 597.745 97.0843 596.903 98.3326 596.528C107.999 593.632 131.491 621.562 140.682 626.674C142.144 627.487 143.313 628.054 144.993 627.597C148.281 623.529 146.748 613.39 146.568 608.352C137.818 599.477 122.878 590.116 112.321 583.133C106.41 579.224 99.9187 575.374 95.0258 570.201C93.0765 568.14 89.8638 564.19 90.4168 561.081C90.6976 559.502 92.4647 557.936 93.8626 557.31C97.0949 555.861 101.057 557.889 103.717 559.675C108.166 562.663 111.863 567.007 115.643 570.777C123.647 578.76 135.308 590.174 145.598 594.522C145.791 594.604 145.986 594.68 146.18 594.759C148.294 587.356 147.455 578.866 147.217 571.251C136.199 560.247 109.338 549.205 102.609 537.846C101.34 535.705 100.043 532.432 101.002 529.939C101.459 528.751 102.36 528.143 103.519 527.743C111.566 524.964 130.978 545.767 137.08 550.881C140.309 553.586 143.736 555.699 147.391 557.778C148.016 549.917 148.228 542.348 147.615 534.472C133.625 522.41 101.702 516.929 93.3705 501.76C92.4275 500.043 91.3693 497.501 92.1856 495.547C92.6792 494.366 93.6743 493.732 94.8165 493.278C97.6532 492.152 101.277 493.345 103.851 494.613C108.122 496.717 111.99 500.336 115.869 503.126C126.379 510.686 136.784 517.726 148.894 522.54C148.725 514.962 149.011 507.336 148.943 499.746C136.402 486.475 106.131 475.92 98.433 461.789C97.5643 460.194 96.8868 458.208 97.6049 456.425C98.1651 455.034 99.5035 453.888 100.918 453.446C103.272 452.711 105.56 453.612 107.617 454.734C111.961 457.1 115.66 460.564 119.401 463.758C128.327 471.38 138.341 481.333 148.972 486.44L149.642 486.758C150.311 479.278 150.492 471.839 150.515 464.334C136.648 452.247 118.371 445.435 104.999 432.844C102.849 430.819 98.8989 426.667 99.2938 423.47C99.4233 422.421 99.8983 421.686 100.691 421.036C102.646 419.433 105.675 418.712 108.127 419.339C119.592 422.272 140.013 448.995 150.409 450.024C150.508 449.926 150.623 449.841 150.707 449.729C152.709 447.073 152.037 430.647 152.056 426.721C141.391 415.927 112.497 402.785 105.511 393.252C104.407 391.746 103.833 390.418 104.169 388.518C105.202 386.889 106.295 385.707 108.225 385.189C116.906 382.858 132 399.526 138.639 404.837C143.305 408.57 148.109 411.837 153.34 414.726C154.381 406.728 154.58 398.96 154.578 390.912C145.188 380.787 119.717 370.534 115.805 361.919C115.254 360.707 115.032 359.425 115.601 358.175C116.137 356.996 117.627 355.739 118.861 355.355C128.673 352.308 145.037 374.51 154.55 378.485L155.19 378.746C156.687 373.178 156.555 367.873 156.541 362.167C146.473 350.707 130.375 347.153 120.559 335.969C119.143 334.356 117.882 332.122 118.202 329.882C118.45 328.15 119.234 326.765 120.706 325.812C131.936 318.543 144.715 348.137 153.895 348.787C155.129 348.875 155.841 348.384 156.606 347.473C158.861 344.791 158.076 338.468 158.019 335.108C151.227 325.492 131.565 313.777 130.454 303.968C130.29 302.52 130.467 300.837 131.528 299.743C132.255 298.993 133.268 298.788 134.277 298.77C143.216 298.607 152.261 315.555 158.346 321.19L158.924 321.721C159.365 317.004 159.404 312.249 159.534 307.515C154.84 302.559 136.349 287.037 137.019 279.877C137.169 278.268 138.667 275.656 140.078 274.79C141.28 274.053 142.426 273.935 143.763 274.331C151.213 276.538 157.143 289.798 160.745 296.013L161.211 292.796C162.865 281.503 167.031 246.388 176.072 239.659Z"/>
	<path fill="#079966" d="M844.717 238.147C845.467 238.539 846.249 238.895 846.772 239.595C849.611 243.397 847.014 253.294 846.229 257.637C847.802 255.096 848.997 252.947 851.594 251.365C852.99 251.241 852.913 251.207 854.013 252.072C854.658 253.726 854.78 255.07 854.603 256.845C853.966 263.232 850.6 268.718 845.729 272.712C845.136 280.081 844.929 287.329 844.992 294.715C845.074 294.558 845.158 294.402 845.237 294.243C845.368 293.979 845.492 293.711 845.622 293.446C847.719 289.151 848.029 283.735 850.453 279.803C851.159 278.659 851.581 278.414 852.859 278.115C854.406 278.755 855.025 280.229 855.851 281.597C856.806 279.646 857.196 277.348 858.276 275.487C858.825 274.542 859.035 274.51 860.02 274.211C861.591 274.773 862.408 276.203 863.385 277.478C864.455 276.976 865.567 276.393 866.692 276.034C867.878 275.656 868.479 275.797 869.502 276.408L869.564 277.738C867.78 282.04 864.069 285.271 860.797 288.446C862.225 288.964 863.919 289.569 864.966 290.733C865.913 291.787 866 292 865.952 293.329C863.571 296.708 857.611 297.046 854.139 299.204L854.182 299.775C855.723 300.253 856.749 300.651 857.989 301.697C858.607 303.038 858.605 303.136 858.339 304.592C857.741 305.406 857.215 305.991 856.321 306.467C853.053 308.203 849.118 306.949 845.792 305.981C846.085 315.144 846.817 324.318 847.621 333.449C860.442 322.157 853.277 319.365 859.152 311.31L860.001 311.205C861.615 313.196 861.535 316.24 862.829 318.518C865.099 317.617 861.919 308.665 863.696 306.081C864.489 304.928 864.918 304.775 866.186 304.62C867.887 305.528 868.91 307.431 869.992 308.979C871.258 304.848 871.333 299.116 874.254 295.776L875.429 296.061C876.567 298.017 876.835 299.748 877.204 301.952C878.685 300.496 880.473 298.4 882.443 297.659C883.699 297.187 884.27 297.263 885.49 297.735C888.648 304.265 879.248 308.677 877.872 313.967C878.659 314.646 878.291 314.437 879.281 314.84C880.284 315.248 880.435 315.659 881.105 316.489C881.282 317.629 881.483 318.27 880.783 319.311C878.481 322.736 872.559 322.915 868.854 323.179C870.882 324.224 872.446 325.054 873.982 326.792L873.869 326.7L874.274 328.333C871.546 331.498 864.54 329.021 861.924 331.303C863.566 332.954 865.967 334.707 866.546 336.96C866.234 337.668 866.295 338.021 865.496 338.312C862.186 339.517 857.31 337.52 854.269 336.102L848.286 339.136C848.754 348.544 849.659 358.786 851.814 367.966C855.502 365.742 858.906 363.421 861.987 360.397C861.974 358.579 861.893 356.654 862.242 354.864C862.591 353.08 863.395 350.206 864.924 349.176C867.12 350.081 867.423 353.876 868.783 355.754C871.04 354.652 870.644 344.295 872.616 341.666C873.078 341.052 873.461 341.155 874.159 341.022C876.806 342.454 877.671 346.405 878.617 349.071C880.293 345.257 880.867 338.892 883.806 335.906C884.475 335.226 884.16 335.426 885.177 335.373C887.169 337.046 887.311 340.395 887.664 342.819C888.461 340.053 889.491 334.636 891.963 333.071C892.599 332.669 892.943 332.952 893.613 333.117C895.048 334.485 895.52 335.987 896.205 337.816L897.625 335.33C898.77 333.345 899.421 332.285 901.694 331.674C903.467 332.299 903.793 333.023 904.95 334.464C907.536 333.301 912.173 330.372 914.974 331.163C915.9 332.195 915.855 332.1 915.79 333.487C913.129 338.276 906.776 341.34 902.122 343.778C903.134 344.098 904.148 344.418 905.148 344.775C906.808 345.368 907.834 345.948 908.597 347.574L908.05 348.681C903.605 351.541 897.577 351.599 892.472 351.518L895.688 353.476C896.025 353.679 896.378 353.858 896.702 354.082C898.173 355.1 898.902 356.054 899.197 357.779L898.392 358.765C893.677 360.6 888.655 358.8 884.055 357.48C885.6 358.838 887.744 360.447 888.65 362.315C889.224 363.498 889.114 364.043 888.661 365.221C884.313 368.086 877.832 363.611 873.007 362.907L872.299 362.809C873.566 363.922 875.001 365.053 876.109 366.321C876.995 367.333 877.266 368.28 877.163 369.618C876.519 370.351 876.525 370.569 875.522 370.814C871.531 371.79 867.821 369.467 864.556 367.53C860.401 369.864 856.419 372.401 852.427 374.997C852.603 385.036 853.558 395.179 854.162 405.209C859.136 402.858 864.049 400.293 868.817 397.551C870.074 392.745 871.469 383.981 874.727 380.393C875.505 379.536 875.706 379.54 876.793 379.457C877.179 379.782 877.529 380.034 877.802 380.484C879.726 383.654 877.565 390.702 876.904 394.257C879.944 389.097 884.226 376.694 888.242 373.46L889.234 373.568C891.445 376.74 890.322 382.707 890.028 386.388C893.128 381.7 893.777 376.318 896.349 371.511C896.973 370.345 897.416 369.987 898.652 369.619L899.602 370.285C900.633 372.336 900.893 373.833 900.436 376.106C900.033 378.11 899.963 380.07 899.876 382.105C901.613 379.331 902.672 376.285 904.171 373.392C905.301 371.212 906.383 369.023 908.833 368.27L909.833 368.88C910.939 370.751 910.959 372.435 911.095 374.551C914.801 372.065 919.191 369.301 923.667 368.6C925.298 368.345 926.282 368.487 927.606 369.454C927.745 370.401 927.889 370.7 927.561 371.642C925.588 377.313 916.838 380.734 911.75 383.121C913.064 383.591 914.809 384.05 915.968 384.827C916.925 385.469 917.253 385.958 917.4 387.105C917.07 387.616 917.073 387.683 916.531 388.127C913.482 390.62 904.855 390.433 901.083 390.006C903.066 391.143 905.725 392.392 907.033 394.313C907.709 395.305 907.652 395.475 907.466 396.593C906.91 397.028 906.857 397.115 906.124 397.433C902.113 399.171 895.435 397.159 891.549 395.705C893.108 397.008 894.94 398.345 896.228 399.917C897.134 401.023 897.558 401.978 897.383 403.387C896.655 403.922 896.506 404.137 895.57 404.288C889.73 405.232 884.068 401.648 879.59 398.398C881.461 400.682 883.626 401.957 883.78 405.212C883.382 405.932 883.353 406.37 882.529 406.684C878.74 408.124 873.759 405.487 870.354 403.97C865.077 406.312 859.91 409.268 854.917 412.157C855.604 424.003 855.932 435.885 856.546 447.74C859.351 446.739 862.116 445.62 864.89 444.533C865.383 440.63 865.762 435.403 868.384 432.279C869.113 431.411 869.367 431.471 870.423 431.402C873.027 433.264 873.301 437.068 873.894 439.993C874.41 434.986 875.086 427.143 878.354 423.114C879.19 422.084 879.427 422.123 880.675 421.949L879.499 422.582L880.989 422.12C881.159 422.289 881.339 422.447 881.498 422.626C884.36 425.839 883.147 430.876 882.795 434.771C885.919 429.547 887.895 420.144 893.597 417.351C894.928 417.34 894.977 417.333 896.043 418.122C897.123 421.49 895.223 425.424 894.193 428.643C897.492 424.272 899.686 416.896 904.003 413.61C904.882 412.942 904.878 412.97 906.03 413.107C907.739 415.28 907.332 418.41 907.121 420.996C908.626 418.357 910.844 413.71 913.596 412.308C914.707 411.741 915.217 412.054 916.255 412.473C917.433 413.722 917.484 415.096 917.73 416.717C920.857 415.511 924.637 413.73 928.003 413.612C929.62 413.556 931 413.885 932.146 415.022L931.922 416.103C927.945 421.139 919.678 424.8 913.681 426.694C915.007 427.337 916.557 427.955 917.75 428.817C918.784 429.564 918.988 430.314 919.144 431.501C918.81 432.034 918.802 432.121 918.257 432.585C914.994 435.367 906.326 434.422 902.297 434.143C904.393 435.348 906.716 436.861 908.221 438.778C908.981 439.746 909.01 439.928 908.884 441.082C908.769 441.172 908.663 441.278 908.537 441.353C905.117 443.39 896.958 441.292 893.339 440.604C894.727 442.417 896.411 444.339 897.341 446.432C897.968 447.844 898.046 448.711 897.475 450.132C896.884 450.412 896.811 450.491 896.08 450.594C891.817 451.195 885.467 445.655 882.339 443.113C884.231 446.112 887.014 449.585 886.999 453.272C886.323 454.406 886.162 454.395 884.928 454.918C881.445 454.762 879.45 452.034 876.919 449.997C875.821 449.113 875.371 448.609 873.94 448.731C872.456 450.415 873.095 453.061 872.323 455.09C871.924 456.137 871.705 456.186 870.745 456.587C867.891 455.858 866.198 454.117 864.372 451.896C861.66 452.498 859.094 453.335 856.468 454.229C856.98 466.99 857.392 479.737 857.587 492.507L866.465 489.02C869.194 484.44 871.863 475.433 876.455 472.686C877.119 472.288 876.967 472.433 877.764 472.697C879.537 475.87 877.319 479.469 877.15 482.826C877.133 483.153 877.128 483.48 877.117 483.807C878.713 479.651 880.157 474.658 882.932 471.158C884.107 469.677 885.392 468.603 887.32 468.41C889.826 470.343 887.89 474.291 888.83 477.02C892.029 475.342 892.562 469.066 894.746 466.148C895.732 464.832 896.642 464.605 898.208 464.395C898.969 464.802 899.351 464.811 899.724 465.651C901.16 468.884 899.435 474.156 898.453 477.411C901.851 473.444 905.306 464.825 910.707 463.608C913.272 464.806 911.69 468.417 912.72 470.636C914.488 469.877 915.616 467.348 916.912 465.909C917.937 464.771 919.4 463.845 920.968 463.841C921.763 463.839 921.889 464.201 922.43 464.701C922.855 466.101 922.787 467.056 922.603 468.471L922.531 468.987C925.245 469.728 928.231 467.649 930.885 468.641C932.074 469.085 932.342 469.662 932.883 470.693C931.695 474.908 924.956 474.781 921.836 476.941C921.963 477.924 922.234 479.148 922.148 480.127C922.026 481.508 921.602 481.673 920.58 482.418C916.601 483.113 913.421 481.563 909.816 480.097C911.667 481.823 915.066 484.174 915.263 486.873C915.321 487.666 914.873 487.832 914.374 488.361C909.253 489.7 902.739 486.914 897.9 485.314C899.477 487.258 901.58 489.482 902.547 491.791C903.093 493.096 903.033 493.763 902.59 495.064C901.539 495.893 900.616 496.583 899.211 496.701C895.86 496.981 892.398 491.574 889.83 489.687C888.567 489.625 888.534 489.378 887.491 490.211C887.788 492.673 890.278 494.328 891.221 496.569C891.728 497.774 891.488 498.879 891.058 500.06C886.146 502.516 881.225 493.521 876.53 493.041C876.946 495.737 880.196 498.403 879.496 501.087C879.049 501.275 878.799 501.418 878.27 501.436C874.45 501.572 870.323 499.049 867.801 496.389C864.321 497.598 860.919 499.079 857.511 500.477C857.515 512.039 857.501 523.597 857.75 535.156C869.802 530.453 869.876 529.382 876.174 518.515C877.494 516.237 878.86 513.596 881.531 512.89C884.045 515.765 881.205 519.563 882.885 522.305C887.306 521.502 889.163 512.275 893.444 509.668C894.475 509.754 894.341 509.514 894.883 510.221C896.572 512.424 895.734 516.104 895.496 518.69C898.904 515.719 904.017 506.022 908.464 505.589C909.236 505.514 909.438 505.924 909.995 506.375C911.042 509.179 908.846 513.147 907.811 515.806C911.262 512.086 915.621 504.394 920.943 503.465C922.101 504.15 921.982 504.219 922.364 505.531C922.079 507.467 921.023 509.033 920.068 510.704C922.667 509.678 925.294 508.783 928.068 508.38C929.687 508.145 931.999 507.784 933.409 508.825C933.494 509.719 933.633 509.815 933.163 510.652C930.678 515.082 922.964 517.475 918.324 518.694C918.598 518.91 918.873 519.126 919.141 519.349C920.476 520.461 921.409 521.442 921.587 523.257C921.173 523.964 921.15 524.258 920.378 524.637C916.886 526.353 911.319 524.411 907.845 523.347C908.797 524.393 910.11 525.719 910.55 527.093C910.943 528.319 910.588 528.706 909.911 529.619C905.927 531.204 899.255 529.171 895.025 528.58C896.1 529.898 897.279 531.237 898.207 532.66C898.965 533.824 899.127 534.714 898.88 536.091C898.296 536.772 898.079 537.231 897.198 537.545C893.464 538.874 886.986 533.513 883.531 531.818C884.421 534.115 885.878 536.19 886.725 538.489C887.17 539.698 886.972 540.717 886.501 541.885C885.728 542.351 885.61 542.573 884.66 542.541C880.621 542.402 877.465 539.51 874.814 536.821C869.18 539.917 864.341 541.77 857.956 542.691C857.683 555.082 857.533 567.462 857.522 579.856C859.75 579.078 861.946 578.152 864.147 577.298C864.799 573.168 865.225 565.093 868.599 562.25C869.896 562.053 869.918 562.175 871.064 562.853C872.998 565.836 872.473 569.848 872.43 573.262C873.575 568.602 874.453 563.639 876.879 559.443C877.96 557.574 879.26 555.663 881.45 555.103L882.414 555.753C883.953 560.312 881.784 565.242 880.292 569.558C883.962 564.705 886.345 557.775 890.081 553.656C891.313 552.297 892.953 550.77 894.906 550.828C895.798 550.855 895.938 551.29 896.525 551.876C897.595 555.403 895.434 559.608 894.284 562.93C898.932 558.69 903.24 548.573 909.467 547.252C910.136 547.502 910.524 547.483 910.915 548.137C912.068 550.068 911.408 552.582 911.076 554.66C916.834 552.754 925.23 549.247 931.26 551.288C932.192 552.204 932.155 552.263 932.329 553.57C930.639 556.428 925.472 557.178 922.55 558.452C921.456 558.929 921.04 558.9 920.587 560.025C921.434 560.979 922.233 561.771 922.621 563.019C922.551 563.134 922.496 563.26 922.409 563.363C919.998 566.224 911.6 566.093 907.971 566.29C909.404 567.095 911.003 567.997 912.232 569.081C913.209 569.942 913.486 570.612 913.617 571.865L912.806 572.82C908.117 574.728 902.886 573.501 898.118 572.496L892.773 574.243C895.581 575.729 898.032 577.003 900.069 579.489C900.197 580.398 900.357 580.525 899.895 581.409C896.548 587.815 884.595 578.52 879.269 580.258C879.452 581.463 881.37 582.749 882.28 583.664C883.391 584.781 883.74 585.491 883.718 587.05C882.965 588.133 882.204 588.844 880.895 589.165C876.463 590.253 870.096 585.957 866.529 583.68C863.553 584.674 860.509 585.516 857.504 586.423C857.744 598.292 857.536 610.209 857.54 622.083C860.096 620.63 862.448 619.051 864.824 617.323C865.979 613.221 866.899 608.636 868.768 604.798C869.49 603.315 870.119 602.466 871.676 601.907L872.886 602.636C875.004 605.795 874.015 609.179 873.582 612.748C876.983 607.205 878.771 599.852 883.352 595.167C884.414 594.081 885.604 593.145 887.169 593.088C887.897 593.527 887.922 593.368 888.217 594.03C889.844 597.687 888.264 603.069 887.239 606.715C887.881 605.607 888.398 604.459 888.966 603.313C891.252 598.693 894.348 590.325 899.668 588.776C900.724 588.469 900.742 588.476 901.729 589.037C902.766 592.14 900.136 598.077 899.154 601.233C903.672 597.685 908.894 588.033 914.452 587.145C915.823 587.583 915.961 587.563 916.797 588.713C916.982 591.668 914.846 593.95 913.171 596.17C917.44 594.994 922.606 593.101 927.045 593.932C928.38 594.182 928.92 594.481 929.725 595.547C928.903 600.838 918.978 601.958 915.842 605.422L915.912 606.481C916.824 607.266 917.587 607.874 918.21 608.92C918.039 609.238 917.909 609.525 917.647 609.792C914.682 612.82 906.293 610.57 902.307 610.503C903.303 612.238 905.461 614.905 905.213 616.992C905.041 618.431 904.523 618.609 903.415 619.312C898.509 619.882 892.635 616.934 888.313 614.783C890.435 617.122 893.132 619.433 893.601 622.696C893.282 623.446 893.336 623.845 892.52 624.182C888.684 625.766 882.155 622.566 878.453 621.159C878.719 622.168 879.075 623.263 879.187 624.299C879.317 625.487 879.013 626.571 878.193 627.466C877.393 628.34 876.356 628.767 875.186 628.833C872.325 628.994 869.909 627.477 867.95 625.56C864.586 627.247 861.035 628.507 857.517 629.831L857.505 663.252C860.937 661.554 863.962 659.599 867.108 657.421C867.742 653.698 868.505 649.649 870.015 646.174C870.551 644.94 870.918 644.283 872.166 643.783C874.463 645.343 874.731 649.159 875.241 651.707C876.209 649.537 877.172 647.36 878.211 645.223C879.69 642.18 882.019 637.457 885.33 636.309C886.444 636.658 886.866 636.88 887.353 638.079C888.5 640.903 885.91 645.323 884.785 647.858C889.004 643.266 891.017 637.531 894.78 632.739C895.924 631.282 897.215 629.853 899.135 629.624C899.894 630.137 900.101 630.097 900.427 631.01C901.669 634.486 899.724 638.057 898.142 641.065C901.708 638.479 906.931 630.298 911.315 630.211C912.165 630.194 912.364 630.615 912.967 631.127C913.679 632.846 913.32 634.202 913.016 635.992C917.038 634.765 922.32 633.429 926.44 634.701C927.507 635.03 927.599 635.199 928.121 636.113C926.613 642.387 919.249 639.611 916.442 643.566C916.576 644.021 916.817 644.805 916.903 645.248C917.138 646.47 917.08 646.653 916.444 647.638C912.564 649.693 905.826 647.959 901.47 647.717C902.678 648.631 904.019 649.531 905.115 650.577C906.204 651.615 906.667 652.662 906.755 654.132L905.936 655.038C900.629 656.8 894.973 654.302 890.011 652.508C891.623 653.902 893.576 655.43 894.704 657.26C895.402 658.391 895.448 658.936 895.175 660.204C894.677 660.619 894.63 660.708 893.952 660.996C889.651 662.818 881.886 659.182 877.916 657.533C878.924 658.564 879.945 659.61 880.75 660.814C881.704 662.241 882.062 663.542 881.729 665.241C880.923 666.155 880.695 666.455 879.469 666.773C876.328 667.586 873.406 665.756 870.855 664.183C866.56 666.613 862.179 668.381 857.472 669.843C857.49 680.938 857.905 692.003 858.461 703.083C869.647 696.202 864.009 688.508 869.535 683.763C870.064 683.308 870.495 683.498 871.14 683.524C874.208 685.762 872.583 688.904 873.69 692.034C876.321 689.609 876.804 681.049 879.539 677.231C880.422 676 880.947 675.435 882.406 675.176C882.927 675.563 883.015 675.583 883.464 676.161C886.151 679.622 884.38 686.379 883.479 690.212C886.425 685.391 889.636 675.852 894.78 673.186C895.727 673.314 895.617 673.093 896.114 673.81C897.733 676.148 897.017 679.722 896.789 682.397C898.366 679.586 899.585 676.6 901.056 673.734C902.265 671.38 903.693 668.872 906.328 668.008C907.605 668.32 907.571 668.351 908.357 669.417C908.895 673.052 907.419 676.509 906.306 679.917C908.619 676.915 911.131 672.976 914.121 670.678C915.192 669.856 915.735 669.588 917.068 669.723C917.841 670.509 919.034 671.945 920.119 672.231C923.788 673.199 928.614 669.703 932.374 671.713C932.423 671.888 932.486 672.059 932.521 672.237C933.64 677.984 923.89 678.443 921.616 681.698C921.893 683.205 922.186 684.416 921.757 685.933C921.036 686.739 920.441 687.259 919.435 687.649C914.956 689.385 910.608 686.872 906.522 685.166C907.854 686.734 909.621 688.446 910.648 690.217C911.298 691.339 911.279 692.023 910.966 693.226C906.292 697.761 901.337 691.267 896.117 693.134C896.274 694.254 896.089 693.871 896.702 694.769C897.721 696.26 898.559 697.247 898.937 699.037C898.771 699.749 898.858 700.304 898.189 700.719C894.501 703.007 887.721 698.709 883.756 698.489C882.591 698.424 881.755 698.587 880.949 699.432C881.658 700.616 882.984 701.927 883.494 703.147C884.059 704.497 883.718 704.884 883.128 706.083C882.352 706.699 881.751 707.224 880.734 707.391C877.352 707.944 873.806 705.711 871.12 703.933C866.917 706.21 863.152 707.851 858.451 708.812C858.47 718.899 858.667 728.931 859.339 738.998C861.963 737.718 864.124 736.147 866.437 734.388C866.751 730.166 867.303 726.099 868.893 722.144C869.452 720.755 870.107 719.184 871.568 718.577L872.424 718.97C874.648 722.19 874.688 725.794 874.987 729.566C877.151 726.254 877.856 722.44 879.49 718.895C880.384 716.955 881.636 714.196 883.777 713.414C884.446 713.727 884.679 713.682 885.029 714.397C886.691 717.795 885.497 721.723 884.564 725.162C885.052 724.598 885.523 724.03 885.998 723.456C889.424 719.321 891.689 711.378 896.023 708.475C897.11 707.746 897.249 707.671 898.502 707.943C898.919 708.432 899.035 708.511 899.334 709.169C900.682 712.128 898.922 715.334 897.7 717.971C898.693 716.634 899.683 715.266 900.802 714.031C902.528 712.129 904.831 710.413 907.516 710.416C908.666 710.417 908.762 710.522 909.552 711.271C909.712 711.875 909.854 712.569 910.081 713.158C910.106 713.225 910.548 714.255 910.617 714.296C911.975 715.1 919.139 712.499 922.078 714.074C922.771 714.444 922.56 714.463 922.78 715.338C922.19 716.927 921.377 718.039 920.11 719.18C916.604 722.336 912.201 722.392 907.773 722.16C909.114 723.02 910.46 723.881 911.755 724.807C913.13 725.79 913.836 726.733 914.123 728.435C913.592 729.433 913.489 729.733 912.392 730.191C907.207 732.356 900.923 730.03 896.023 728.202C897.765 729.991 899.717 731.797 900.905 734.017C901.697 735.498 901.967 736.378 901.526 738.005C899.473 739.044 897.474 738.591 895.299 738.025C892.17 736.405 889.174 734.99 885.811 733.926C887.681 736.034 890.063 738.313 891.327 740.838C892.012 742.208 892.422 743.427 891.978 744.937C890.933 745.785 890.675 745.943 889.246 745.917C885.025 745.841 880.258 741.842 877.286 739.071C871.478 741.733 865.855 743.884 859.471 744.595C859.899 751.076 861.793 776.315 859.986 781.378C858.978 782.341 858.833 782.571 857.485 782.831L856.509 782.15C853.098 776.398 853.639 752.209 853.494 744.678C851.36 744.539 849.224 744.187 847.104 743.905C846.821 744.803 846.534 745.71 846.163 746.576C845.294 748.605 843.266 751.586 840.939 752.119C839.574 752.431 839.284 752.181 838.21 751.466C836.502 748.468 837.666 745.923 838.503 742.845C836.462 746.209 834.46 749.68 832.038 752.789C830.376 754.924 828.387 757.38 825.564 757.757C824.512 757.259 823.92 757.121 823.644 755.84C822.866 752.238 826.503 745.893 828 742.531C822.318 746.32 817.715 752.484 810.909 754.379L809.556 753.379C809.127 749.464 812.255 744.929 814.047 741.634C811.002 743.998 807.86 747.314 803.82 747.307C802.224 746.774 801.639 745.798 800.693 744.504C798.448 743.96 795.457 743.509 793.523 742.23C792.411 741.494 792.216 740.988 791.955 739.725C793.853 735.762 797.531 738.309 800.112 735.756C800.245 734.898 800.308 733.776 800.623 732.976C801.247 731.389 803.824 731.851 805.304 731.251C804.549 730.249 803.794 729.246 803.065 728.224C802.064 726.823 801.137 725.554 801.431 723.739C802.045 723.089 802.141 722.839 803.035 722.561C808.756 720.781 818.512 729.922 823.517 732.654L824.189 733.017C823.071 729.855 820.877 725.347 821.86 721.98C822.083 721.214 822.074 721.444 822.881 720.955C827.881 721.425 835.348 731.707 838.52 735.449C837.524 732.881 835.726 728.556 836.602 725.83C836.844 725.075 836.884 725.294 837.73 724.949C841.371 725.894 843.002 732.055 845.739 734.446C847.779 736.227 850.966 737.437 853.405 738.629C853.455 728.812 852.928 718.966 852.545 709.157C845.109 707.729 843.081 710.57 838.285 710.028C836.887 709.869 836.482 709.495 835.604 708.449C835.07 706.545 835.928 704.649 836.483 702.822C833.599 704.347 831.173 706.301 828.441 708.026C826.196 709.443 823.813 709.903 821.218 709.322C820.712 708.792 820.307 708.652 820.33 707.855C820.443 703.994 824.681 700.639 827.364 698.351C821.526 700.891 813.045 707.637 806.459 706.76C805.701 706.659 805.633 706.307 805.182 705.76C805.203 705.542 805.204 705.321 805.245 705.106C805.998 701.196 810.421 698.165 813.382 695.926C810.035 697.308 805.504 699.95 801.895 700.077C800.514 700.126 800.041 699.804 799.033 698.924C798.642 697.938 798.547 697.384 798.725 696.356C798.75 696.209 798.904 695.502 798.882 695.332C798.578 692.969 786.228 688.405 784.039 685.311C783.302 684.269 783.162 683.732 783.42 682.51C787.336 679.298 794.091 683.994 798.956 682.025C799.095 681.969 800.205 681.502 800.397 681.457C803.283 680.786 808.473 685.736 810.753 687.511C809.696 685.236 808.293 682.801 808.583 680.214C808.71 679.079 808.506 679.499 809.354 678.789C813.033 679.257 816.786 685.882 819.314 688.463C820.768 689.947 822.404 691.296 823.991 692.635C822.928 690.378 821.201 687.566 821.623 684.973C821.757 684.149 822.153 684.135 822.79 683.708C826.116 684.434 830.722 691.482 833.349 694.088C833.343 692.88 833.313 691.649 833.415 690.445C833.518 689.217 833.982 688.534 834.909 687.74C838.231 688.311 842.733 697.281 845.663 699.806C847.489 701.38 850.244 702.276 852.458 703.199C852.589 692.154 852.209 681.131 851.87 670.092C846.47 669.157 840.89 668.692 835.443 668.034C833.477 669.513 831.462 670.938 829.188 671.913C827.504 672.635 825.137 673.249 823.419 672.361C822.743 672.011 822.388 671.354 822.224 670.616C821.585 667.732 824.542 664.55 826.149 662.429C822.631 665.565 816.697 671.562 811.635 671.26C810.312 671.182 810.167 670.954 809.375 670.014C808.952 667.117 810.52 664.778 811.966 662.425C809.255 664.046 803.204 668.427 799.978 667.575C799.248 667.383 799.129 666.827 798.757 666.233C798.613 664.066 799.593 662.336 800.448 660.401C797.098 661.125 793.931 662.633 790.491 661.718C789.294 660.376 788.682 658.701 787.34 657.483C784.278 654.702 778.481 653.412 777.005 649.323C777.101 648.7 776.984 648.192 777.555 647.807C780.19 646.029 786.902 647.95 789.867 648.624C789.435 646.698 788.59 644.249 789.237 642.311C789.523 641.456 789.769 641.528 790.498 641.13C794.457 641.662 799.339 647.599 802.151 650.337C801.985 649.485 801.819 648.63 801.701 647.769C801.465 646.042 801.516 644.472 802.609 643.047C806.703 642.595 811.244 650.994 814.496 653.469C814.653 653.588 814.814 653.7 814.972 653.816C814.409 652.08 813.852 650.337 813.369 648.576C812.888 646.822 812.246 644.569 813.203 642.88C817.199 642.806 824.081 655.064 829.328 658.347L829.928 658.715C828.233 655.064 826.167 650.059 827.286 645.983L828.204 645.679C833.64 648.452 833.68 654.441 836.875 658.711C839.713 662.503 847.274 663.242 851.681 663.762C851.862 652.473 851.864 640.99 851.22 629.719L842.544 628.132C839.325 629.676 832.734 633.46 829.091 632.294C828.374 632.064 828.351 631.685 828.007 631.082C828.079 629.744 828.288 628.999 828.901 627.793C829.327 626.955 829.662 626.338 829.806 625.394C826.802 624.395 822.756 627.556 819.999 628.769C817.869 629.706 816.043 630.26 813.788 629.358C813.318 628.809 812.951 628.681 813.04 627.892C813.317 625.431 816.226 623.076 817.899 621.398C814.147 622.496 804.101 626.799 800.649 624.913C799.95 624.532 800.087 624.089 799.945 623.382C800.844 620.151 803.075 618.074 805.355 615.774C800.448 616.756 795.331 619.194 790.292 617.78C789.272 616.841 789.326 616.911 789.233 615.524C789.95 613.653 791.036 612.611 792.444 611.215C788.18 609.568 783.131 607.789 779.522 604.959C777.987 603.756 776.613 602.419 776.482 600.363C776.426 599.491 776.709 599.448 777.23 598.833C780.808 597.67 785.093 599.621 788.678 600.214C790.211 600.467 790.216 600.501 791.424 599.617C791.793 598.016 792.693 596.738 793.542 595.357C797.663 597.916 799.906 601.292 802.632 605.185C802.109 601.966 801.023 597.806 802.671 594.821C803.791 594.15 803.863 594.241 805.175 594.415C809.841 597.429 810.764 604.498 814.172 608.722C814.868 609.585 815.374 610.182 816.512 610.277C817.772 607.529 815.599 603.621 817.68 601.289C821.747 601.466 824.463 610.528 826.622 613.359C827.684 614.752 829.114 615.637 830.577 616.55L831.195 616.928C830.288 614.031 828.145 609.218 829.744 606.326C830.39 605.158 830.81 605.117 831.995 604.942C836.363 607.001 838.427 615.303 840.531 619.439C844.002 621.468 847.645 622.284 851.521 623.162C851.726 610.947 851.736 598.732 851.763 586.516L837.352 581.194C835.206 582.847 832.349 585.264 829.392 584.667C827.998 584.386 827.862 584.149 827.206 583.013C827.133 581.519 827.622 580.434 828.159 579.075C828.487 578.246 828.462 578.691 828.209 577.789C824.851 578.247 821.807 580.913 818.556 582.027C816.825 582.62 814.639 582.93 813.003 581.93C812.299 581.5 812.405 581.171 812.213 580.435C813.174 576.708 816.708 573.902 819.33 571.273L814.905 573.824C811.937 575.518 807.664 577.622 804.216 576.673C803.628 576.095 803.291 576.011 803.211 575.131C802.985 572.66 804.806 570.66 806.168 568.78C802.333 568.678 796.542 569.067 793.086 567.284C791.956 566.701 791.697 566.19 791.373 565.015C791.846 563.365 792.798 562.461 793.939 561.25C789.209 559.908 784.463 557.278 780.838 553.934C778.849 552.099 777.304 550.176 777.155 547.406C777.729 546.269 777.936 545.856 779.29 545.499C783.357 544.425 790.75 548.814 794.259 550.764C794.892 548.798 795.761 546.979 796.636 545.113C796.754 545.193 796.872 545.271 796.989 545.352C797.184 545.487 797.375 545.627 797.57 545.761C802.134 548.896 805.101 553.32 808.363 557.694C808.05 554.367 807.396 549.185 809.197 546.237C809.632 545.525 809.597 545.759 810.549 545.592C815.891 548.731 817.069 558.899 820.237 564.097C820.344 564.273 820.458 564.445 820.569 564.618C820.456 560.735 819.724 555.325 820.845 551.657C821.18 550.558 821.201 550.495 822.232 549.907C828.347 551.779 826.72 564.353 830.393 568.273C831.334 565.245 829.743 561.75 831.878 559.159C832.628 558.957 833.021 558.677 833.781 558.992C837.722 560.628 838.568 568.447 839.981 572.001C841.603 576.083 848.25 578.496 852.014 580.063L852.032 543.352C849.048 542.453 846.205 541.362 843.32 540.188C838.779 541.601 832.681 543.59 827.988 542.367C827.467 541.838 827.05 541.722 827.103 540.914C827.267 538.429 830.462 536.249 832.204 534.708C827.927 536.882 819.353 542.463 814.567 541.087C814.067 540.37 813.769 540.255 813.856 539.313C814.109 536.582 818.038 533.681 819.928 531.853C815.96 533.031 804.274 536.916 800.631 534.62C799.987 534.214 800.104 533.734 799.977 533.051C800.728 530.758 802.217 529.009 803.645 527.101C800.282 524.705 794.901 527.688 791.108 526.895C789.712 526.603 789.577 526.334 788.819 525.238C788.597 523.419 789.235 522.335 790.025 520.727C785.025 518.974 776.705 516.365 773.917 511.491C773.112 510.083 773.391 509.222 773.845 507.812C777.321 506.284 782.376 509.637 786.233 509.836C787.293 509.327 788.49 508.667 789.673 508.544C791.944 508.307 793.85 510.629 795.362 512.037C796.226 511.71 795.9 508.765 796.677 507.508L797.79 507.462C801.84 509.257 804.398 514.131 806.887 517.667C806.394 513.702 805.283 510.169 806.325 506.178L807.594 505.523L806.826 505.559L808.078 505.799C812.34 509.709 815.078 516.1 817.846 521.137C817.393 516.771 816.004 512.118 817.077 507.774C817.559 507.272 817.637 506.891 818.398 506.94C823.83 507.286 827.069 522.028 830.69 526.013C830.823 526.159 830.959 526.303 831.094 526.447C830.951 523.359 830.314 519.709 830.65 516.67C830.844 514.915 831.085 514.208 832.503 513.112C832.64 513.145 832.789 513.145 832.914 513.21C837.228 515.43 839.667 526.042 841.39 530.41C844.839 532.9 848.452 534.255 852.431 535.628C852.637 523.956 852.628 512.206 852.217 500.539C850.712 499.779 849.025 498.826 847.359 498.494C843.396 497.704 838.199 499.137 834.768 496.67C834.693 496.06 834.69 494.936 834.426 494.407C833.39 492.334 820.851 498.598 816.917 496.825L816.528 495.641C817.048 492.966 818.958 491.101 820.729 489.166C815.121 490.264 808.942 494.496 803.312 493.504C802.156 492.663 802.162 492.697 801.828 491.309C802.569 488.301 804.484 487.348 806.945 485.789C802.723 486.126 794.348 486.775 790.974 484.058C790.311 482.403 790.689 481.839 791.303 480.162C791.383 479.943 791.468 479.726 791.55 479.508C789.847 477.907 787.572 477.1 785.479 476.103C782.328 474.602 777.591 472.585 776.61 468.88C776.327 467.813 776.541 466.938 777.067 466.011C780.171 464.821 785.142 466.878 788.234 467.705C788.446 467.194 788.661 466.682 788.908 466.186C789.578 464.839 790.327 463.995 791.798 463.52C795.275 464.411 796.339 468.247 798.455 470.822C799.238 471.775 799.745 472.179 800.995 472.273C801.147 470.861 801.208 469.272 801.553 467.897C801.862 466.67 802.226 466.353 803.304 465.772C806.938 466.599 810.082 473.829 813.305 476.156L813.88 475.894C814.024 472.934 812.585 470.257 812.813 467.3L813.514 466.759C818.741 467.815 822.948 478.721 826.785 482.712L827.335 483.28C826.049 480.023 823.574 474.696 824.639 471.268C824.871 470.522 824.889 470.729 825.682 470.384C826.395 470.599 826.512 470.599 827.243 471.01C831.61 473.467 833.422 480.286 834.756 484.707C835.1 482.974 835.34 480.975 836.029 479.347C836.438 478.379 836.455 478.233 837.47 477.891C840.131 479.134 841.251 484.11 842.331 486.758C843.891 490.584 848.704 491.824 852.217 493.336C852.157 480.559 852.046 467.558 850.517 454.861L842.2 451.264C839.521 452.846 836.35 454.953 833.288 455.525C831.831 455.798 831.036 455.523 829.855 454.693C829.265 452.908 829.854 451.992 829.975 450.215C825.828 450.494 821.32 457.295 816.761 455.938C815.608 455.595 815.351 455.221 814.866 454.238C815.542 450.943 818.818 448.38 821.146 446.126C816.162 448.714 807.434 453.866 801.629 452.087C801.153 451.579 800.775 451.441 800.79 450.688C800.836 448.343 803.185 446.42 804.72 444.864C801.802 445.112 795.736 446.345 793.129 445.229C791.776 444.65 791.711 444.31 791.138 443.042C791.206 441.308 791.999 440.38 792.967 439.032C788.827 436.224 778.076 431.905 776.626 426.961L777.429 425.595C780.994 423.552 783.418 426.43 787.022 426.376C788.803 426.35 789.52 425.848 790.727 424.631C791.348 424.004 791.654 423.56 792.53 423.284C794.155 422.773 796.508 426.776 798.024 427.542C798.1 425.998 798.218 424.808 798.786 423.364C799.346 423.085 799.591 422.785 800.24 422.979C803.517 423.957 807.61 431.189 809.542 433.917C809.326 433.032 809.12 432.145 808.949 431.25C808.504 428.935 807.576 425.171 808.976 423.116L810.108 423.189C815.062 426.841 818.087 433.511 822.008 438.265C821.023 434.713 818.964 429.532 820.112 425.89C820.94 425.356 820.749 425.199 821.565 425.462C825.929 426.865 831.137 438.039 833.391 441.855C833.036 439.882 832.332 437.364 832.885 435.375C833.198 434.251 833.301 434.1 834.242 433.526C838.887 434.874 841.618 442.064 845.383 445.087C846.942 446.338 849.211 447.165 851.03 447.987C850.648 436.283 850.103 424.598 849.507 412.903C845.996 412.524 842.624 412.014 839.181 411.225C835.842 413.27 831.024 416.447 826.992 415.712C825.362 414.276 825.358 412.734 825.018 410.663C822.557 409.025 817.73 414.224 814.528 414.448C813.23 414.538 813.033 414.408 812.16 413.586C811.947 411.334 813.038 410.074 813.639 407.928C809.692 407.855 804.572 411.885 800.781 410.513C800.025 410.239 800.037 409.802 799.723 409.132C799.806 407.297 800.604 405.997 801.451 404.399C799.246 404.824 796.972 405.321 794.723 405.376C792.921 405.42 791.844 405.174 790.579 403.947C790.469 403.253 790.389 402.446 790.196 401.762C789.728 400.104 788.885 399.905 787.543 399.029C784.879 397.292 781.783 395.638 781.078 392.305C781.414 390.821 781.316 390.793 782.54 389.92C784.332 389.754 785.83 390.232 787.531 390.774C790.325 391.663 791.889 390.195 794.519 390.404C796.308 390.546 798.23 391.649 799.966 392.197C801.611 391.542 802.146 389.832 803.046 388.33C808.372 386.353 811.686 396.532 816.637 397.302L817.168 396.537C817.09 395.61 817.012 394.734 816.806 393.825C816.405 392.058 815.912 389.946 816.861 388.267C817.254 387.573 817.548 387.718 818.251 387.584C823.348 389.608 825.529 396.724 829.656 400.249C829.813 400.384 829.975 400.514 830.135 400.646C829.991 398.626 829.762 396.504 829.931 394.485C830.044 393.13 830.367 391.869 831.398 390.965L832.563 391.349C835.92 394.652 837.837 399.257 839.757 403.48C842.774 404.94 845.764 405.727 849.015 406.431C848.939 396.35 848.032 386.215 847.178 376.175L835.832 374.176C833.148 375.2 830.451 376.29 827.688 377.083C825.791 377.628 823.326 378.425 821.479 377.394C820.856 375.834 821.764 374.874 821.512 373.234C818.214 373.565 815.296 375.463 812.122 376.337C809.746 376.992 808.119 376.668 806.016 375.48C805.255 374.384 805.175 374.417 805.317 373.106C806.513 371.073 808.471 369.87 810.331 368.484C806.678 370.287 803.076 371.982 799.249 373.385C796.77 372.266 795.104 370.53 792.848 369.128C790.889 367.911 788.623 367.416 786.661 366.142L786.493 365.127C787.239 363.556 788.594 362.763 789.956 361.768C786.803 360.614 783.363 359.568 780.405 357.986C778.09 356.747 774.441 354.85 773.664 352.253C773.913 351.844 774.088 351.498 774.468 351.172C779.403 346.939 790.794 353.591 796.083 353.24C795.824 351.503 795.571 349.996 795.862 348.252C796.469 347.705 796.455 347.462 797.348 347.515C801.216 347.749 805.156 353.605 807.569 356.43C807.154 354.191 806.705 351.467 807.434 349.25C807.742 348.316 807.518 348.663 808.474 348.154C811.635 349.164 815.351 356.085 817.292 358.903C816.594 355.651 815.722 351.811 816.782 348.533C817.151 347.389 817.281 347.31 818.296 346.816C823.227 348.372 825.851 360.257 828.725 364.658L829.114 365.241C828.447 362.529 827.58 359.651 827.761 356.836C827.848 355.481 827.846 354.742 828.86 353.802C829.015 353.83 829.174 353.838 829.323 353.887C833.343 355.22 837.042 364.433 838.877 368.092C841.37 369.001 843.943 369.452 846.539 369.968C845.029 360.648 845.144 351.099 843.41 341.802C840.17 340.674 837.005 339.293 833.831 337.99C831.165 340.468 827.862 342.641 824.208 343.16C822.981 342.727 823.025 342.791 822.428 341.639C822.44 339.723 823.56 338.042 824.433 336.384C821.27 336.997 818.495 338.5 815.402 339.289C813.463 339.783 812.256 339.764 810.538 338.713C810.041 337.482 809.977 337.24 810.15 335.93C811.475 334.054 813.711 332.917 815.615 331.683C810.272 331.67 801.36 333.339 797.211 329.56C796.888 328.471 796.616 327.994 797.374 326.969C799.067 324.681 802.533 324.278 805.117 323.746C799.131 321.738 788.587 318.934 784.933 313.703C784.7 312.321 784.685 312.408 785.467 311.244C789.928 309.243 794.94 311.757 799.178 313.32C798.534 311.434 797.753 309.624 798.641 307.69L799.624 307.337C804.044 308.736 807.293 314.182 809.722 317.862C809.596 317.471 809.469 317.08 809.352 316.687C808.716 314.549 807.454 311.686 808.791 309.598C809.21 308.944 809.578 309.106 810.279 309.011C813.971 311.17 816.31 318.223 818.252 321.96C817.694 319.069 816.468 314.955 818.096 312.277C819.011 311.985 818.856 311.839 819.617 312.148C823.223 313.61 825.16 322.905 826.646 326.441C826.433 323.458 826.442 320.469 826.413 317.479C832.406 323.982 834.147 332.007 842.78 335.924C842.539 327.22 841.847 318.485 841.128 309.808C838.742 310.553 835.345 312.06 832.88 311.245C832.037 310.966 832.075 310.521 831.726 309.78C831.849 307.743 832.923 306.115 833.863 304.35C831.099 303.957 827.378 303.845 824.879 302.598C823.446 301.883 822.997 301.121 822.551 299.635C823.055 298.004 823.516 297.805 824.793 296.734C823.568 293.843 818.564 291.168 816.087 289.19C817.179 287.127 817.61 285.245 818.138 283.007C818.415 281.831 819.01 279.206 819.953 278.628C821.701 279.548 821.961 280.927 823.27 282.341C824.498 281.442 825.374 280.73 826.936 280.524C831.342 283 828.429 287.896 829.844 291.48C831.271 290.505 831.577 288.79 832.804 287.585C833.461 286.941 833.626 287.147 834.471 287.166C837.572 289.986 836.901 294.736 838.838 298.259L839.427 297.988C841.269 291.277 840.075 281.949 839.976 274.992C838.284 274.411 835.783 273.728 834.999 271.928C834.074 269.805 835.186 267.917 836.027 265.96C835.755 265.509 835.482 265.058 835.218 264.603C833.465 261.576 831.833 257.287 832.994 253.749C833.333 252.714 833.597 252.666 834.506 252.208C837.238 252.995 838.475 255.732 839.833 258.005C840.271 250.917 840.858 244.292 844.717 238.147Z"/>
	<path fill="#079966" d="M343.542 248.768C344.777 249.514 345.725 250.289 346.509 251.526C348.896 255.29 348.854 261.453 349.22 265.833C350.447 280.518 349.792 294.049 344.099 307.782C341.029 315.185 337.764 322.371 335.874 330.193C342.486 324.64 366.093 304.284 373.7 304.84C375.234 304.952 375.377 305.186 376.302 306.289C376.536 307.659 376.458 308.611 376.011 309.939C374.947 313.099 373.025 316.159 371.298 318.992C362.723 333.06 351.139 340.928 336.571 347.931C336.245 354.429 335.611 360.913 335.2 367.407C340.854 361.879 367.925 340.746 375.55 340.7C377.034 340.691 377.176 340.899 378.14 341.895C379.299 345.435 376.943 350.567 375.412 353.796C367.223 371.064 352.049 381.189 334.492 387.326L334.623 404.045C342.053 399.105 373.071 375.777 380.489 375.633C381.165 376.035 381.679 376.152 382.012 376.912C383.36 379.984 381.213 385.401 379.892 388.36C371.713 406.679 353.335 419.08 335.113 425.985C334.977 431.522 334.979 437.048 335.01 442.586C337.134 440.551 339.385 438.647 341.734 436.876C349.701 430.869 381.829 410.832 390.758 412.748C392.159 413.048 392.515 413.605 393.266 414.75C393.66 418.704 390.832 422.858 388.965 426.221C377.501 446.876 357.018 458.119 334.971 464.324L335.305 481.336C336.39 480.495 337.481 479.663 338.594 478.86C347.934 472.13 390.728 450.102 401.189 451.765C401.808 452.182 402.283 452.265 402.458 453.052C402.969 455.348 400.884 458.574 399.713 460.516C384.776 485.28 363.804 500.574 335.717 507.457L335.531 523.894C346.785 513.841 385.62 499.094 401.074 499.464C403.154 499.514 404.509 499.868 406.002 501.37C406.186 502.503 406.245 502.918 405.74 504.009C404.104 507.542 400.895 511.353 398.405 514.393C382.376 533.963 360.169 542.119 336.948 549.875C337.081 555.758 337.054 561.632 337.01 567.516C352.116 556.198 370.515 550.812 388.586 546.363C393.357 545.189 398.34 543.694 403.25 543.319C405.579 543.142 407.516 543.191 409.337 544.781C409.86 546.456 409.603 547.359 408.756 548.885C395.116 573.483 363.511 584.832 338.015 592.095C338.245 598.066 338.339 604.05 338.492 610.024C342.082 607.614 345.544 604.916 349.251 602.691C357.69 597.627 399.765 582.315 408.047 585.48C409.43 586.009 409.529 586.225 410.053 587.499C409.94 588.343 409.792 589.062 409.431 589.843C407.474 594.071 403.646 598.33 400.536 601.775C383.899 620.204 362.295 630.752 339.402 639.148C339.449 645.632 339.544 652.108 339.726 658.589C358.281 643.408 378.249 635.436 401.709 631.404C404.331 630.953 407.326 630.372 409.594 631.974C409.905 633.017 409.855 633.782 409.454 634.806C399.732 659.607 364.51 676.8 341.444 687.159C341.493 693.887 341.809 700.629 342.022 707.355C358.293 696.283 374.357 687.106 393.182 681.013C397.05 679.761 401.135 678.242 405.155 677.665C407.045 677.395 408.469 677.429 410.05 678.629C410.652 680.036 410.638 680.82 410.012 682.241C408.25 686.243 404.805 690.267 402.2 693.798C386.846 714.608 367.238 727.61 343.366 736.972C343.386 745.562 346.471 780.231 342.786 785.872C341.855 787.296 340.46 788.01 338.821 788.193C337.956 787.932 337.4 787.712 336.711 787.095C333.839 784.522 333.485 780.595 333.397 777.042L332.685 736.975C319.489 732.788 305.809 728.664 293.841 721.548C280.51 713.621 268.617 702.013 260.456 688.828C259.06 686.572 257.156 683.894 256.616 681.272C256.3 679.74 256.688 678.915 257.553 677.683C258.541 677.154 259.298 676.837 260.434 676.798C265.385 676.628 271.014 678.972 275.652 680.564C293.573 686.717 317.784 696.805 331.909 709.479L331.537 686.848C314.333 682.436 297.18 675.466 282.684 665.027C275.067 659.543 259.244 645.601 258.044 635.727C257.875 634.341 258.147 633.441 258.98 632.32C260.382 631.461 261.526 631.285 263.143 631.324C277.23 631.664 320.537 649.963 330.379 659.874C330.625 653.078 330.415 646.218 330.382 639.415C308.763 634.382 277.773 620.524 264.068 603.104C261.062 599.284 255.747 592.091 256.316 587.172C257.177 585.822 257.744 585.143 259.367 584.813C264.494 583.772 271.199 586.496 276.091 588.074C294.829 594.115 313.339 601.755 329.858 612.58L329.607 593.185C323.38 591.724 317.227 589.963 311.131 588.029C290.009 581.328 268.567 570.42 258.327 549.54C257.145 547.13 256.25 544.664 257.103 542.03C257.696 541.451 257.996 540.963 258.831 540.751C267.173 538.631 301.65 554.118 310.543 558.508C316.762 561.578 322.752 565.026 328.711 568.569C328.569 562.749 328.805 556.864 328.855 551.039C306.207 544.177 277.82 528.945 265.588 508.206C263.748 505.087 260.317 499.305 261.275 495.659C261.977 495.024 262.039 494.804 263.024 494.627C271.053 493.182 304.911 510.392 312.853 514.92C317.92 517.808 322.816 521.093 327.499 524.564L327.52 507.821C318.779 504.075 310.004 500.422 301.69 495.779C287.562 487.889 272.192 475.115 267.92 458.69C267.421 456.771 267.256 455.347 268.301 453.563C269.133 452.981 269.602 452.773 270.643 452.676C278.745 451.921 308.907 468.475 316.88 473.43C320.647 475.772 324.1 478.364 327.513 481.192L327.521 464.944C312.917 459.96 298.306 450.834 287.851 439.436C282.492 433.593 271.459 418.319 272.393 409.971C272.545 408.603 272.918 408.149 273.945 407.301C282.435 407.267 320.138 434.223 328.014 440.96L328.068 425.966C310.369 418.593 295.431 404.955 286.504 387.894C284.707 384.46 281.521 377.891 282.907 374.058C283.326 372.901 283.536 372.899 284.592 372.422C294.547 373.652 320.91 396.904 328.966 403.887L329.019 387.359C312.304 378.411 296.351 364.37 290.523 345.737C289.626 342.87 288.177 339.249 289.664 336.413C290.871 335.654 291.448 335.393 292.896 335.614C302.244 337.036 323.372 358.877 329.224 366.536C329.496 360.182 329.414 353.775 329.484 347.413C322.107 342.52 314.85 336.581 309.501 329.49C304.156 322.404 298.67 310.663 300.189 301.554C300.558 299.343 301.504 298.039 303.307 296.754C304.328 296.493 304.92 296.38 305.972 296.643C313.114 298.435 325.604 322.155 329.688 329.05C328.056 322.366 327.047 315.475 326.491 308.619C324.796 287.726 329.742 264.987 343.542 248.768Z"/>
	<path fill="#F66698" d="M691.508 238.716C692.895 239.643 693.731 240.485 694.525 241.97C703.267 258.337 694.858 283.238 689.718 299.625C693.45 295.577 707.038 282.966 711.845 282.133C712.646 281.995 712.767 282.379 713.325 282.853C713.557 283.742 713.706 284.488 713.653 285.414C713.153 294.126 706.292 306.348 700.057 312.389C696.675 315.666 692.553 318.181 689.083 321.377C687.182 323.128 687.512 325.448 687.417 327.854C695.327 324.349 710.854 314.825 718.168 313.089C719.397 312.798 719.494 312.672 720.608 313.359C721.258 316.202 720.504 319.205 719.583 321.915C713.753 339.064 699.875 350.926 684.102 358.746C684.216 361.337 684.046 363.978 683.987 366.573C690.804 364.397 697.508 361.905 703.981 358.844C709.892 356.049 727.254 345.278 732.204 344.758L732.947 345.373C733.661 349.185 730.538 354.678 728.814 357.978C718.944 376.869 702.042 391.763 681.603 398.189C681.893 401.589 681.815 404.908 681.693 408.313C689.561 406.183 697.369 403.823 704.994 400.933C712.189 398.207 730.413 388.461 736.105 388.163L736.715 388.959C737.147 392.276 735.672 395.77 734.274 398.738C723.994 420.555 702.76 429.04 681.497 436.703L681.177 447.259C694.005 445.432 706.974 441.719 719.124 437.228C725.079 435.026 730.907 432.366 736.985 430.518C738.67 430.006 741.345 428.941 743.044 429.624C743.987 430.004 744.658 430.589 744.803 431.626C745.297 435.16 741.554 440.818 739.611 443.709C726.137 463.764 703.217 473.803 680.243 478.251L680.284 492.394C686.084 491.189 691.848 489.765 697.498 487.984C707.194 484.928 736.271 473.857 744.824 474.238C746.489 474.312 747.193 474.651 748.303 475.87C748.751 478.093 747.985 479.641 746.924 481.56C734.328 504.318 704.135 519.284 680.167 526.404L680.085 537.57C685.841 536.334 691.638 535.318 697.383 534.023C706.471 531.976 745.164 521.525 751.617 526.119C752.294 526.601 752.689 527.19 752.829 527.994C753.279 530.578 751.161 533.762 749.75 535.872C734.592 558.547 704.564 570.057 679.007 575.065C679.003 579.063 678.86 583.056 678.731 587.051C692.843 586.891 707.273 584.991 721.181 582.67C730.584 581.101 739.984 579.142 749.489 578.284C751.087 578.14 753.248 578.126 754.681 578.952C755.619 579.493 756.124 580.359 756.134 581.444C756.164 584.869 751.918 589.347 749.725 591.789C732.138 611.378 705.272 621.325 679.382 622.626L679.458 635.604C687.932 633.693 696.541 632.376 705.035 630.55C713.462 628.738 746.597 619.197 753.379 620.668C754.744 620.964 755.175 621.649 755.96 622.721C756.334 624.726 755.359 626.564 754.417 628.287C751.598 633.442 747.195 637.967 742.903 641.913C724.731 658.619 702.618 666.002 679.476 672.888L679.612 687.572C697.282 684.286 715.076 681.286 732.84 678.564C737.823 677.801 753.921 674.85 757.654 677.597C758.04 678.228 758.317 678.717 758.303 679.49C758.24 683.089 754.648 687.39 752.335 690.014C739.313 704.796 720.503 716.081 701.115 719.886C694.424 721.199 687.507 721.536 680.71 721.974C680.792 725.246 680.82 728.486 680.682 731.757C695.918 729.509 739.633 725.147 751.854 732.298C753.173 733.07 754.503 734.145 754.709 735.765C754.991 737.983 753.069 740.153 751.702 741.686C736.971 758.211 710.326 762.725 689.422 763.901L681.446 763.995C681.563 769.344 683.64 782.327 679.816 786.315C678.901 787.27 677.908 787.779 676.564 787.788C675.201 787.797 674.186 787.259 673.256 786.298C669.143 782.047 670.829 769.144 671.063 763.555C647.674 763.5 619.294 758.977 600.644 744.001C597.841 741.751 593.609 738.289 593.183 734.568C593.602 733.681 593.632 733.395 594.453 732.772C603.766 725.703 657.853 729.306 670.311 731.509L670.327 720.924C660.973 720.017 651.648 718.753 642.525 716.443C620.653 710.903 600.92 700.245 589.137 680.392C587.699 677.969 585.077 673.954 585.806 671.103C591.17 667.578 640.995 681.762 649.087 683.578C655.953 685.118 662.81 686.207 669.785 687.119C669.551 682.635 669.539 678.117 669.426 673.626C647.647 672.889 622.847 657.742 606.963 643.517C602.528 639.546 589.219 626.096 589.336 619.954C589.352 619.087 589.435 619.321 590.213 618.696C599.463 617.632 632.442 627.279 644.025 629.865C652.145 631.678 660.332 633.049 668.561 634.254L668.658 622.436C650.306 619.389 633.664 611.007 619.083 599.633C613.731 595.459 594.828 578.758 594.91 571.828C594.924 570.605 595.3 570.241 596.113 569.489C605.986 568.926 619.756 573.943 629.459 576.429C642.298 579.717 655.121 583.144 668.043 586.088L668.027 572.766C656.952 569.232 646.495 564.628 637.014 557.825C630.225 552.954 603.411 529.421 603.188 521.636C603.151 520.366 603.181 520.225 604.092 519.366C613.936 518.53 640.814 529.453 651.582 532.913C657.05 534.67 662.616 536.083 668.183 537.485L668.127 525.807C652.895 520.893 641.7 513.55 630.915 501.72C625.836 496.148 608.784 476.35 609.54 469.883C609.635 469.074 609.927 469.11 610.531 468.696C617.17 468.578 639.939 479.602 647.6 482.533C654.51 485.177 661.496 487.486 668.575 489.628C668.568 484.88 668.472 480.175 668.202 475.432C661.684 473.425 655.47 470.461 649.721 466.799C641.122 461.322 616.849 438.749 615.314 428.556C615.111 427.206 615.388 426.704 616.151 425.629C621.466 425.645 659.525 442.399 668.609 445.279L668.905 434.99C657.251 429.299 648.746 423.065 641.356 412.29C637.582 406.789 627.812 392.029 629.02 385.419L629.725 384.938C638.039 386.074 661.876 400.94 670.493 405.982C670.602 402.888 670.831 399.791 671.009 396.7C662.659 390.888 638.814 363.752 637.841 353.429C637.715 352.094 637.834 351.863 638.578 350.859C643.188 350.929 667.132 364.756 672.217 368.07C672.156 365.127 672.251 362.164 672.271 359.22C660.349 347.455 651.35 329.283 647.284 313.116C646.771 311.08 646.238 308.676 647.341 306.755C652.999 305.264 666.407 318.202 670.844 321.533C673.357 323.42 675.941 324.992 678.715 326.463C676.389 320.27 671.418 315.076 667.993 309.44C664.535 303.75 657.518 287.432 659.572 281.095C659.954 279.919 660.234 279.423 661.393 278.909C666.539 280.463 677.257 292.729 680.618 297.074C680.311 277.975 679.401 254.631 691.508 238.716Z"/>
	<path fill="#079966" d="M513.837 237.26C515.366 238.05 516.237 238.705 517.139 240.192C518.686 242.741 519.027 246.275 519.646 249.161C523.879 268.876 518.519 283.439 513.62 302.089C519.901 296.033 527.303 289.286 534.6 284.473C536.193 283.423 537.696 282.391 539.629 282.798C539.721 282.969 539.835 283.129 539.905 283.309C540.712 285.368 539.573 288.59 538.893 290.619C534.085 304.954 527.32 316.607 513.468 323.367C513.437 327.938 513.52 332.508 513.588 337.078C520.748 331.577 543.845 312.059 550.754 310.513L551.465 311.367C552.55 319.141 545.243 336.46 541.454 343.428C535.208 354.914 526.91 360.2 514.578 363.773C514.573 370.48 514.5 377.19 514.81 383.892C522.699 378.974 557.309 359.228 564.917 357.264C563.819 367.11 559.421 375.989 554.383 384.417C545.023 400.08 533.578 410.918 515.59 415.369C515.604 422.462 515.32 429.73 516.033 436.789C520.03 433.723 524.238 431.242 528.7 428.905C535.575 425.305 571.289 408.822 577.22 409.195C577.689 409.887 577.765 409.775 577.807 410.52C578.202 417.616 567.174 433.498 562.747 438.882C551.356 452.737 533.998 463.901 515.921 465.72L515.981 485.745C524.162 480.584 575.557 456.076 583.718 458.127C584.647 458.36 584.314 458.194 584.843 459.101C584.478 464.861 574.633 478.018 571.195 482.539C556.684 501.617 538.975 511.253 515.468 514.507C515.407 519.482 515.439 524.456 515.469 529.432C517.649 528.142 519.913 526.978 522.186 525.861C530.4 521.826 583.298 502.53 588.671 504.939C589.092 505.127 589.129 505.179 589.191 505.635C589.775 509.949 581.492 519.998 578.961 523.258C561.753 545.422 542.363 557.663 514.504 561.18L514.087 576.425C517.584 574.019 521.457 572.209 525.375 570.603C531.217 568.209 537.297 566.4 543.425 564.897C550.193 563.235 584.195 556.579 588.691 558.831C589.437 559.204 589.348 559.555 589.585 560.282C589.129 562.177 588.31 563.564 587.113 565.092C573.17 582.874 555.182 598.859 532.969 605.011C526.237 606.875 519.329 607.683 512.42 608.575C511.911 613.295 511.519 617.954 511.37 622.704C515.643 620.28 519.938 617.884 524.514 616.07C534.081 612.277 576.905 605.427 585.613 609.926C586.856 610.568 587.086 611.105 587.486 612.39C587.152 614.779 586.289 616.314 584.734 618.16C574.293 630.557 547.886 647.663 531.952 652.193C524.637 654.273 516.949 654.564 509.408 655.115C508.54 661.787 508.121 668.506 507.622 675.214C511.272 673.843 514.941 672.547 518.68 671.44C526.655 669.077 582.699 660.44 587.064 662.806C587.18 663.227 587.283 663.479 587.236 663.949C586.93 667.033 582.741 670.727 580.613 672.791C568.134 684.899 548.742 700.419 532.212 705.223C522.928 707.922 514.302 708.483 504.714 708.371L503.33 721.032C505.521 720.37 507.721 719.701 509.947 719.165C519.23 716.931 572.312 712.979 578.844 718.223C579.762 718.96 580.336 719.653 580.235 720.892C580.087 722.724 578.592 724.509 577.39 725.779C573.771 729.603 568.716 733.029 564.386 736.008C544.71 749.541 524.411 755.694 500.659 756.448C500.539 762.713 501.403 776.085 497.081 780.884C496.176 781.889 495.045 782.385 493.677 782.282C492.418 782.187 491.328 781.639 490.524 780.661C486.664 775.963 489.594 760.903 490.112 755.173C469.36 750.179 452.95 741.248 436.342 728.002C429.047 721.534 421.724 714.921 415.605 707.302C413.785 705.036 411.33 702.132 411.673 699.073C412.985 697.919 414.926 698.044 416.579 698.071C428.733 698.272 473.295 708.835 484.459 713.913C487.895 715.477 490.31 717.466 492.904 720.152C493.247 715.186 493.62 710.228 494.068 705.269C482.789 702.654 471.82 698.917 461.71 693.203C450.199 686.696 421.156 658.606 417.99 645.067C417.619 643.481 417.751 642.458 418.638 641.053C418.984 640.934 419.291 640.806 419.666 640.784C424.574 640.494 480.132 662.712 487.181 666.599C490.837 668.615 493.758 671.98 496.645 674.933C497.715 668.409 498.2 661.799 498.804 655.22C486.137 652.862 474.5 649.391 462.969 643.56C453.203 638.621 421.722 611.787 418.952 601.139C418.62 599.862 418.785 599.326 419.405 598.207C421.201 597.741 422.958 598.023 424.763 598.302C435.936 600.032 485.996 614.463 495.343 619.868C497.763 621.267 499.285 623.265 500.908 625.462C500.702 619.787 501.437 613.909 501.631 608.215C483.373 604.269 468.472 597.956 454.096 585.772C447.596 580.263 422.986 556.408 423.393 548.968C423.461 547.715 423.502 547.418 424.4 546.577C430.505 546.179 483.505 567.191 491.985 571.289C496.234 573.343 499.829 575.711 503.423 578.762C503.688 572.761 504.36 566.781 504.6 560.77C490.929 556.64 477.805 552.484 465.576 544.865C461.272 542.184 457.144 539.202 453.311 535.88C446.317 529.816 428.07 511.006 426.644 502.317C426.456 501.173 426.565 500.729 427.301 499.808C429.084 499.805 430.665 500.167 432.372 500.645C443.43 503.743 454.158 508.546 464.934 512.521C475.093 516.269 487.211 518.956 496.38 524.696C500.37 527.194 503.008 530.152 505.302 534.221C505.582 527.146 505.525 520.038 505.583 512.957C499.38 511.694 493.354 509.637 487.529 507.179C469.185 499.439 455.285 487.265 443.894 471.007C440.58 466.277 436.946 460.508 434.859 455.095C434.21 453.412 433.858 452.018 434.621 450.295C435.828 449.62 436.426 449.528 437.799 449.865C448.499 452.492 459.09 459.281 469.169 463.782C478.303 467.861 488.611 470.867 496.972 476.382C500.741 478.868 503.357 482.074 505.838 485.789C505.776 478.961 506.126 472.085 506.305 465.256C504.476 464.9 502.648 464.535 500.832 464.118C481.072 459.577 461.641 443.169 451.14 426.2C447.864 420.907 439.684 404.288 441.992 398.071C442.48 396.757 442.748 396.743 443.964 396.259C450.976 397.321 485.368 419.271 492.475 424.339C497.12 427.652 501.381 431.296 505.585 435.138L505.502 414.397C484.826 405.424 470.557 388.092 461.291 367.932C458.631 362.145 451.344 344.92 453.416 339.26L454.11 338.943C460.72 340.961 476.215 357.358 482.508 362.708C489.87 368.965 497.408 375.028 504.927 381.095C504.995 374.723 504.798 368.397 504.518 362.033C491.067 356.187 482.768 345.152 476.078 332.499C473.749 328.093 468.043 317.638 470.004 312.573C470.28 311.859 470.643 311.857 471.272 311.535C477.038 312.567 498.318 328.85 504.01 333.167L504.025 321.577C495.518 315.635 488.68 308.086 483.954 298.818C481.738 294.473 476.946 284.068 478.879 279.224C479.173 278.487 479.471 278.519 480.125 278.196C485.873 278.925 498.299 291.978 502.783 296.419C502.575 293.209 502.398 289.998 502.322 286.782C501.971 271.933 502.927 248.697 513.837 237.26Z"/>
</svg>
