<?xml version="1.0" encoding="utf-8" ?>
<svg xmlns="http://www.w3.org/2000/svg" xmlns:xlink="http://www.w3.org/1999/xlink" width="1023" height="1024">
	<path fill="#F56799" d="M319.609 443.883C312.452 431.946 294.784 402.398 298.629 388.694C299.023 387.287 299.815 386.137 301.132 385.453C302.286 384.853 303.235 384.933 304.461 385.357C316.026 389.353 329.363 424.465 334.414 435.791C336.443 432.335 340.342 426.04 344.12 424.579C345.335 424.109 346.534 423.958 347.722 424.615C349.669 425.692 350.487 428.179 350.787 430.24C351.906 437.913 348.719 448.131 344.196 454.299C345.694 458.2 347.229 462.009 349.087 465.754C353.617 460.953 368.024 444.456 374.368 444.686C375.7 444.734 376.426 445.283 377.277 446.243C380.071 449.394 379.516 456.167 379.446 460.173C378.327 460.713 377.374 460.908 376.958 462.213C376.661 463.144 376.744 464.549 376.703 465.54C378.353 470.097 380.522 474.431 383.107 478.532C387.202 481.433 391.651 482.85 396.376 484.406C394.969 486.809 392.839 489.689 393.801 492.617C394.65 495.199 397.809 496.175 400.064 497.054C406.709 497.209 413.318 497.124 419.962 496.944C417.673 499.448 415.389 502.373 412.803 504.547C413.041 506.912 413.326 508.544 415.272 510.077C418.69 512.77 424.34 512.258 428.438 512.322C418.349 532.041 404.799 541.396 390.062 556.923L392.853 563.889C385.653 563.256 378.487 562.344 371.314 561.462L368.556 556.234C354.126 559.069 337.653 558.65 323.369 555.435C317.484 554.11 304.073 550.874 300.702 545.509C300.625 544.307 300.514 543.939 301.35 542.956C306.32 537.113 351.411 537.648 360.994 537.656C359.044 533.624 357.177 529.601 355.484 525.451C340.548 527.791 316.068 526.888 302.734 519.477C300.985 518.505 299.652 517.525 299.079 515.541C299.287 514.546 299.249 514.153 299.926 513.347C305.397 506.828 336.921 505.866 346.246 505.217C344.592 501.692 342.764 498.161 341.64 494.427C332.461 494.38 322.895 493.943 313.887 492.115C309.158 491.156 301.62 489.525 298.816 485.287C298.73 484.046 298.615 483.728 299.486 482.725C303.592 477.994 326.345 475.904 333.279 475.412C331.678 471.089 329.96 466.819 328.23 462.547C320.5 462.681 313.579 461.382 306.342 458.64C303.122 457.42 297.696 455.658 296.195 452.354C296.278 451.567 296.191 451.197 296.709 450.542C300.331 445.954 314.009 444.843 319.609 443.883ZM400.064 497.054C390.857 504.541 381.782 512.15 372.787 519.888C375.258 525.474 377.534 531.404 380.409 536.78C391.009 525.778 401.643 514.988 412.803 504.547C415.389 502.373 417.673 499.448 419.962 496.944C413.318 497.124 406.709 497.209 400.064 497.054ZM357.151 487.305C359.178 491.414 361.208 495.518 363.312 499.588C370.35 492.865 376.333 485.426 383.107 478.532C380.522 474.431 378.353 470.097 376.703 465.54C370.88 472.968 364.092 480.967 357.151 487.305Z"/>
	<path fill="#069966" d="M764.581 603.601C768.568 588.994 775.728 568.093 789.622 560.134C790.966 559.365 792.369 558.7 793.951 559.232C795.18 559.645 795.856 560.614 796.343 561.757C798.416 566.621 792.949 577.313 790.685 581.65C784.979 592.584 777.245 602.068 771.075 612.682C777.279 612.039 793.66 608.592 798.34 613.628C798.847 614.174 798.867 614.295 799.169 614.885C798.938 616.201 798.62 616.74 797.54 617.575C790.658 622.898 776.309 623.305 767.804 625.863C766.908 626.132 765.32 626.405 764.601 626.913C762.506 628.394 760.762 633.468 759.622 635.829C768 634.877 788.576 633.035 795.332 638.353C795.974 638.858 796.334 639.463 796.743 640.157C796.738 641.458 796.677 642.073 795.716 643.031C788.83 649.893 763.743 648.149 753.939 649.06C753.09 651.039 752.18 653.01 751.436 655.031C754.779 656.321 758.312 658.472 761.152 660.644C767.885 660.55 785.261 660.04 790.097 664.511C790.883 665.238 791.098 665.7 791.393 666.695C790.873 668.608 789.958 669.431 788.231 670.375C777.566 676.202 756.154 676.279 743.723 676.502C742.873 678.893 741.929 681.23 740.958 683.572C745.418 685.736 749.396 687.913 752.793 691.623C761.496 690.799 784.055 686.374 790.592 692.249C791.502 693.067 791.629 693.295 791.778 694.477C790.56 697.176 786.634 698.436 784.007 699.445C768.559 705.377 748.158 706.424 731.766 708.031C730.865 710.584 729.955 713.132 729.144 715.715C736.579 715.42 744.615 714.401 750.5 720.012C751.147 720.629 751.734 721.311 752.31 721.994C761.189 719.54 780.491 714.862 789.109 719.719C790.482 720.493 792.297 721.909 792.754 723.481C792.951 724.155 792.603 724.886 792.286 725.463C788.452 732.434 752.172 739.923 743.34 741.12C735.796 742.143 728.105 742.25 720.506 742.496C719.922 744.503 719.15 746.586 718.743 748.628C727.045 750.102 745.702 752.44 751.65 757.504C756.632 757.008 769.285 754.118 773.256 757.27C774.312 758.109 774.412 758.726 774.657 759.952C772.201 765.473 759.237 770.7 753.803 772.808C745.555 776.008 736.586 777.384 727.805 778.078C724.428 778.346 712.791 777.525 710.729 778.843C710.265 780.092 709.943 781.282 709.646 782.577C717.133 783.568 737.483 783.002 741.743 789.083C742.683 790.427 742.463 792.242 742.43 793.803C752.37 792.197 774.656 787.186 783.166 792.815C784.056 793.404 784.217 793.754 784.621 794.691C784.228 797.165 782.507 798.562 780.543 799.943C770.151 807.248 752.203 810.27 739.784 813.363C738.09 813.561 735.985 814.073 734.321 813.768C730.61 813.518 721.359 813.455 718.133 814.79L709.142 814.948C707.189 816.333 705.255 817.973 702.943 818.677L702.134 818.412C701.823 817.469 701.654 816.593 701.478 815.618L701.068 815.982L701.081 816.652C701.125 820.538 700.495 825.314 697.605 828.228C696.699 829.141 696.079 829.304 694.838 829.417C693.759 828.774 693.102 828.358 692.714 827.094C692.404 826.084 692.288 824.952 692.13 823.907C693.083 819.914 694.626 815.379 694.645 811.276L694.024 810.652L692.775 811.141C690.04 809.571 688.056 807.324 685.909 805.058C682.651 801.418 677.149 798.475 673.026 795.756C663.732 787.739 654.573 780.587 647.104 770.681C646.366 769.058 645.729 767.849 645.847 766.039C646.246 765.426 646.317 764.987 647.075 764.78C651.742 763.502 659.572 770.294 664 771.963C672.325 770.418 687.806 769.779 696.691 769.302C688.068 760.879 678.905 752.804 669.941 744.743C661.362 736.396 653.239 727.489 646.14 717.844C636.162 718.34 623.235 719.463 613.541 717.382C614.458 710.562 616.816 704.052 617.75 697.25C618.617 696.224 619.602 695.442 620.644 694.607C628.745 695.429 636.92 695.404 645.049 695.732C659.563 696.317 673.228 697.174 687.701 694.939C689.094 694.684 690.407 694.089 691.73 693.589C695.989 691.421 701.446 690.406 706.061 689.137C700.577 682.993 695.466 675.947 691.144 668.948C689.323 665.695 687.025 662.423 685.835 658.878C685.294 657.266 685.08 656.151 685.807 654.598L687.088 654.314C692.152 655.605 697.01 659.909 701.235 662.932C706 667.422 710.65 672 715.244 676.665L716.555 678.021C722.436 678.764 727.373 680.001 732.901 682.11C734.053 679.575 734.796 676.892 735.616 674.236C726.25 662.419 719.375 653.451 712.8 639.735C712.308 638.371 711.908 637.024 711.673 635.589C711.373 633.762 711.295 631.381 712.683 629.919C713.606 628.947 714.759 628.6 716.066 628.656C719.241 628.793 721.347 631.555 723.275 633.726C726.282 637.882 729.447 643.132 733.664 646.175C737.219 647.805 740.707 649.577 744.206 651.325C744.743 649.738 745.352 648.144 745.75 646.518C741.711 638.691 729.666 617.927 732.595 609.737C733.039 608.495 733.902 608.061 734.988 607.482C737.405 607.384 738.894 608.47 740.585 610.063C746.108 615.264 749.644 623.684 753.178 630.281L757.569 621.828C754.254 614.161 747.457 595.95 750.875 587.678C751.485 586.201 752.25 585.659 753.674 585.039C755.566 585.362 756.56 586.473 757.595 587.991C760.83 592.737 761.925 598.569 764.581 603.601ZM620.644 694.607C619.602 695.442 618.617 696.224 617.75 697.25C616.816 704.052 614.458 710.562 613.541 717.382C623.235 719.463 636.162 718.34 646.14 717.844C645.43 716.297 644.72 714.998 644.75 713.25C645.223 712.56 645.22 712.192 646.113 712.028C650.871 711.158 657.522 716.739 661.645 718.847C671.825 716.381 682.295 715.169 692.67 713.827C689.449 707.833 685.946 701.973 687.701 694.939C673.228 697.174 659.563 696.317 645.049 695.732C636.92 695.404 628.745 695.429 620.644 694.607ZM706.061 689.137C701.446 690.406 695.989 691.421 691.73 693.589C695.43 696.705 698.825 699.899 702.004 703.55C703.749 705.554 705.395 708.031 707.293 709.839C712.42 709.992 717.312 710.671 722.393 711.191L724.422 704.668C717.794 700.042 711.763 694.86 706.061 689.137ZM702.707 727.511C696.475 730.287 689.975 733.306 683.518 735.46C687.9 739.464 692.265 743.495 696.734 747.402C701.347 746.224 706.072 747.525 710.818 746.154L712.766 739.905C709.445 735.756 706.188 731.528 702.707 727.511ZM689.284 789.188C690.759 790.692 693.031 793.54 694.992 794.277C696.398 794.805 696.648 794.617 697.92 794.025C699.504 792.077 699.798 789.269 700.347 786.864C696.692 787.532 692.801 788.003 689.284 789.188Z"/>
	<path fill="#F56799" d="M751.436 655.031C754.779 656.321 758.312 658.472 761.152 660.644C757.186 661.22 753.149 661.406 749.153 661.694L751.436 655.031Z"/>
	<path fill="#F56799" d="M733.664 646.175C737.219 647.805 740.707 649.577 744.206 651.325C743.203 654.15 742.146 656.952 741.081 659.754C738.593 655.237 736.065 650.738 733.664 646.175Z"/>
	<path fill="#F56799" d="M696.734 747.402C701.347 746.224 706.072 747.525 710.818 746.154C709.908 750.776 708.224 755.196 707.021 759.741C703.202 755.953 699.853 751.78 696.734 747.402Z"/>
	<path fill="#F56799" d="M740.958 683.572C745.418 685.736 749.396 687.913 752.793 691.623C747.444 693.262 741.712 694.223 736.236 695.418C737.657 691.417 739.439 687.541 740.958 683.572Z"/>
	<path fill="#F56799" d="M716.555 678.021C722.436 678.764 727.373 680.001 732.901 682.11L728.585 694.229C724.983 688.459 720.948 683.202 716.555 678.021Z"/>
	<path fill="#F56799" d="M707.293 709.839C712.42 709.992 717.312 710.671 722.393 711.191C720.681 716.419 718.866 721.467 717.455 726.8C713.397 721.719 710.448 715.507 707.293 709.839Z"/>
	<path fill="#F56799" d="M729.144 715.715C736.579 715.42 744.615 714.401 750.5 720.012C751.147 720.629 751.734 721.311 752.31 721.994C742.075 724.773 732.854 728.967 723.562 733.984C725.521 727.918 727.406 721.849 729.144 715.715Z"/>
	<path fill="#F56799" d="M718.743 748.628C727.045 750.102 745.702 752.44 751.65 757.504C737.996 760.81 726.228 763.115 712.959 768.343C715.209 761.895 716.938 755.214 718.743 748.628Z"/>
	<path fill="#F56799" d="M696.691 769.302C698.913 771.042 701.107 772.808 703.281 774.608L700.347 786.864C696.692 787.532 692.801 788.003 689.284 789.188C681.131 782.741 672.943 777.248 664 771.963C672.325 770.418 687.806 769.779 696.691 769.302Z"/>
	<path fill="#F56799" d="M692.67 713.827C695.974 718.409 699.2 723.082 702.707 727.511C696.475 730.287 689.975 733.306 683.518 735.46C676.628 729.492 668.939 724.316 661.645 718.847C671.825 716.381 682.295 715.169 692.67 713.827Z"/>
	<path fill="#F56799" d="M709.646 782.577C717.133 783.568 737.483 783.002 741.743 789.083C742.683 790.427 742.463 792.242 742.43 793.803C737.476 795.383 732.216 796.384 727.198 797.855C719.327 800.163 711.649 803.066 703.962 805.917C705.405 798.133 707.018 790.053 709.646 782.577Z"/>
	<path fill="#F56799" d="M602.721 501.329C612.54 508.092 643.793 535.301 654.238 533.178C655.334 532.955 656.537 532.308 657.21 531.381C657.954 530.357 657.997 529.235 657.679 528.06C656.438 523.484 651.941 518.576 648.829 515.141C636.858 501.929 624.419 489.628 621.254 471.256C620.767 468.426 620.057 463.46 621.497 460.93C622.062 459.936 622.648 459.258 623.831 459.075C627.465 458.511 633.207 463.69 635.671 466.103C642.405 472.698 661.86 496.741 670.843 496.861C671.945 496.876 672.685 496.638 673.521 495.88C674.719 494.793 674.657 492.788 674.397 491.334C673.735 487.633 671.407 483.797 669.669 480.504C663.554 468.923 647.876 446.486 656.127 433.5C656.836 432.385 657.905 431.322 659.307 431.252C662.168 431.108 665.203 434.412 666.916 436.4C671.115 441.273 679.914 457.331 686.623 457.581C687.913 457.629 688.993 456.932 689.791 455.97C692.546 452.653 692.928 448.259 692.364 444.153C691.211 435.747 682.833 414.062 687.886 406.96C688.526 406.06 689.589 405.736 690.658 405.8C693.229 405.954 695.667 409.386 696.908 411.319C699.242 414.953 703.103 424.638 707.599 425.526C708.539 425.712 709.63 425.274 710.359 424.666C713.339 422.179 722.722 400.458 726.162 394.486C729.521 388.655 733.431 383.264 738.034 378.349C740.816 375.377 744.466 371.729 748.848 371.86C750.21 371.901 751.62 372.317 752.548 373.377C753.816 374.824 753.77 376.959 753.464 378.738C750.826 394.115 716.65 430.768 719.324 437.483C721.512 439.495 725.515 439.039 728.31 438.922C732.982 438.726 739.171 437.829 743.047 441.12C744.381 442.252 745.364 444.222 745.394 445.988C745.422 447.621 744.879 448.88 743.721 450.003C735.956 457.538 706.63 455.664 704.885 466.026C704.656 467.387 705.145 468.483 706.018 469.494C712.102 476.542 739.426 471.128 740.123 483.583C740.209 485.131 739.268 486.521 738.165 487.536C727.423 497.41 690.56 485.285 689.12 500.48C688.977 501.99 689.241 503.054 690.252 504.223C696.891 511.906 741.435 505.333 740.817 516.674C740.702 518.788 738.285 521.075 736.623 522.093C729.66 526.359 718.335 527.293 710.359 527.363C702.554 527.431 674.268 522.748 672.168 533.379C671.85 534.988 672.303 537.001 673.433 538.235C675.711 540.721 680.269 541.182 683.431 541.606C691.826 542.731 700.335 542.908 708.794 542.714C716.108 542.545 724.543 541.076 731.691 542.865C734.528 543.575 737.62 545.074 737.892 548.379C738.127 551.243 736.23 554.34 734.315 556.313C726.328 564.539 708.299 565.152 697.686 565.038C688.148 564.936 666.418 561.832 659.656 568.722C658.562 569.836 657.568 571.376 657.615 572.996C657.659 574.541 658.655 575.767 659.843 576.643C671.684 585.375 725.114 580.058 731.411 593.023C731.537 595.002 731.327 596.413 730.031 597.993C725.539 603.468 714.937 605.068 708.27 605.482C689.621 606.638 670.811 604.263 652.16 605.553C649.447 608.296 645.032 612.993 645.257 617.099C645.346 618.729 645.928 620.014 647.187 621.046C650.365 623.65 655.8 623.649 659.745 623.951C667.357 624.532 675.116 625.005 682.744 624.51C692.507 623.877 709.4 619.465 718.432 622.408C721.292 623.341 723.562 625.672 723.859 628.73C724.021 630.4 723.653 632.11 723.275 633.726C721.347 631.555 719.241 628.793 716.066 628.656C714.759 628.6 713.606 628.947 712.683 629.919C711.295 631.381 711.373 633.762 711.673 635.589C711.908 637.024 712.308 638.371 712.8 639.735C719.375 653.451 726.25 662.419 735.616 674.236C734.796 676.892 734.053 679.575 732.901 682.11C727.373 680.001 722.436 678.764 716.555 678.021L715.244 676.665C710.65 672 706 667.422 701.235 662.932C697.01 659.909 692.152 655.605 687.088 654.314L685.807 654.598C685.08 656.151 685.294 657.266 685.835 658.878C687.025 662.423 689.323 665.695 691.144 668.948C695.466 675.947 700.577 682.993 706.061 689.137C701.446 690.406 695.989 691.421 691.73 693.589C690.407 694.089 689.094 694.684 687.701 694.939C673.228 697.174 659.563 696.317 645.049 695.732C636.92 695.404 628.745 695.429 620.644 694.607C624.962 690.224 635.505 679.806 635.649 673.463C635.675 672.312 635.385 671.963 634.794 671.029C633.074 670.181 631.952 670.341 630.147 670.936C626.949 671.989 623.933 673.74 620.889 675.17C613.475 678.652 606.117 682.291 598.636 685.623C575.606 695.881 552.38 705.301 528.535 713.472C521.976 709.903 515.068 707.004 508.518 703.358L508.471 692.275C511.082 693.023 514.718 694.374 517.42 693.578C518.548 693.245 519.522 692.63 519.941 691.473C520.957 688.666 518.699 685.204 517.446 682.815C524.398 688.117 534.25 697.169 543.26 697.843C545.236 697.99 547.33 697.636 548.778 696.176C556.61 688.276 538.772 675.661 538.495 669.044L538.99 668.577C546.26 667.974 554.319 674.426 560.92 677.149C564.788 678.744 569.626 680.004 573.613 678.096C574.745 677.555 575.435 676.878 575.7 675.597C576.769 670.438 569.221 661.382 566.271 657.649C573.701 660.297 587.08 666.646 594.757 662.73C598.529 660.807 599.564 657.605 600.775 653.854C599.795 653.202 598.893 652.513 597.977 651.777C600.996 648.836 608.353 645.506 612.246 643.248C617.86 636.882 638.445 621.677 638.226 613.226C638.194 611.989 637.733 611.718 636.854 611.056C631.189 610.879 606.192 623.518 598.638 626.394C591.265 629.201 583.761 631.479 576.193 633.696C568.468 626.481 562.235 619.297 556.306 610.545C559.446 610.576 565.012 610.581 567.343 608.03C570.973 604.059 564.555 598.477 564.184 594.324L565.002 593.597C571.581 594.044 579.203 597.244 585.64 593.852C586.788 593.246 587.634 592.483 587.912 591.158C588.423 588.714 586.533 586.068 585.136 584.26C588.674 582.426 592.116 580.411 595.573 578.43C602.333 573.482 609.106 568.497 615.371 562.927C619.394 558.32 623.993 553.846 628.479 549.681C631.602 546.333 637.48 540.497 637.265 535.602C637.213 534.399 636.892 534.253 636.075 533.468C629.893 532.139 618.653 539.709 613.034 542.677C606.808 537.298 592.444 525.201 589.993 517.873C590.536 515.39 590.294 513.443 589.881 510.964L602.721 501.329ZM712.8 639.735C697.605 643.702 682.947 647.787 667.134 648.441C658.259 648.807 648.612 646.902 639.911 648.45C636.39 649.076 633.558 650.172 631.756 653.387C630.096 656.347 629.447 660.044 628.672 663.325C651.01 665.184 667.84 670.419 691.144 668.948C689.323 665.695 687.025 662.423 685.835 658.878C685.294 657.266 685.08 656.151 685.807 654.598L687.088 654.314C692.152 655.605 697.01 659.909 701.235 662.932C706 667.422 710.65 672 715.244 676.665L716.555 678.021C722.436 678.764 727.373 680.001 732.901 682.11C734.053 679.575 734.796 676.892 735.616 674.236C726.25 662.419 719.375 653.451 712.8 639.735ZM595.573 578.43C592.116 580.411 588.674 582.426 585.136 584.26C586.533 586.068 588.423 588.714 587.912 591.158C587.634 592.483 586.788 593.246 585.64 593.852C579.203 597.244 571.581 594.044 565.002 593.597C570.043 596.155 575.57 598.107 580.762 600.385C594.519 606.42 606.772 613.146 622.119 614.21C624.554 612.017 626.445 609.638 628.188 606.877C623.726 597.185 615.252 593.442 606.959 587.603C602.968 584.793 599.275 581.603 595.573 578.43ZM628.479 549.681C623.993 553.846 619.394 558.32 615.371 562.927C620.698 566.935 628.548 572.587 635.525 572.361C637.482 572.297 639.568 571.69 640.872 570.146C641.949 568.872 642.192 567.243 641.948 565.643C640.952 559.133 633.365 553.434 628.479 549.681ZM612.246 643.248C608.353 645.506 600.996 648.836 597.977 651.777C598.893 652.513 599.795 653.202 600.775 653.854C602.912 654.433 605.605 655.242 607.831 655.222C609.165 655.21 610.68 654.602 611.505 653.527C613.421 651.033 612.534 646.233 612.246 643.248Z"/>
	<path fill="#F56799" d="M701.235 662.932C706.19 663.048 712.202 663.271 715.9 667.099C717.078 668.319 717.626 669.905 717.514 671.591C717.382 673.569 716.416 675.135 715.244 676.665C710.65 672 706 667.422 701.235 662.932Z"/>
	<path fill="#234146" d="M617.75 697.25C616.816 704.052 614.458 710.562 613.541 717.382C623.235 719.463 636.162 718.34 646.14 717.844C653.239 727.489 661.362 736.396 669.941 744.743C678.905 752.804 688.068 760.879 696.691 769.302C687.806 769.779 672.325 770.418 664 771.963C659.572 770.294 651.742 763.502 647.075 764.78C646.317 764.987 646.246 765.426 645.847 766.039C645.729 767.849 646.366 769.058 647.104 770.681C654.573 780.587 663.732 787.739 673.026 795.756C677.149 798.475 682.651 801.418 685.909 805.058C688.056 807.324 690.04 809.571 692.775 811.141L694.024 810.652L694.645 811.276C694.626 815.379 693.083 819.914 692.13 823.907C692.288 824.952 692.404 826.084 692.714 827.094C693.102 828.358 693.759 828.774 694.838 829.417C696.079 829.304 696.699 829.141 697.605 828.228C700.495 825.314 701.125 820.538 701.081 816.652L701.068 815.982L701.478 815.618C701.654 816.593 701.823 817.469 702.134 818.412L702.943 818.677C705.255 817.973 707.189 816.333 709.142 814.948L718.133 814.79C721.359 813.455 730.61 813.518 734.321 813.768C735.985 814.073 738.09 813.561 739.784 813.363C741.892 820.011 734.599 831.763 731.652 837.914C736.428 835.127 748.801 826.787 754.307 828.796C755.493 829.228 756.305 829.772 756.749 831.008C757.968 834.393 754.318 839.774 752.484 842.51C750.392 845.631 748.067 848.62 745.806 851.622C754.934 848.227 779.634 837.989 788.449 842.056C789.586 842.58 790.468 843.392 790.969 844.567C791.586 846.013 791.403 847.552 790.657 848.909C784.752 859.652 748.695 868.489 736.501 871.522C719.805 875.676 702.952 879.036 686.197 882.906C670.48 886.536 654.938 890.628 639.114 893.827C620.042 897.683 600.548 900.314 581.191 902.227C515.368 908.729 441.108 901.794 375.977 891.118C354.032 887.52 331.797 883.825 310.487 877.368C295.309 872.769 279.717 866.434 266.066 858.306C262.626 856.258 254.097 851.094 253.395 846.883C253.229 845.892 253.363 845.327 253.666 844.398C254.883 843.209 255.911 842.973 257.555 842.993C264.808 843.085 273.833 847.662 280.711 850.172C278.311 845.964 274.445 839.848 275.477 834.743C275.758 833.356 276.016 833.213 277.124 832.528C283.925 832.098 296.567 844.268 301.788 848.723C300.861 844.486 299.54 838.465 302.081 834.599C302.602 833.806 303.097 833.335 303.851 832.763L311.832 833.681C310.632 826.325 309.821 818.867 308.781 811.482C326.44 799.424 345.228 793.349 361.588 778.465C379.281 787.026 402.627 787.255 421.458 782.578C421.935 791.776 422.891 800.975 423.672 810.152C426.726 809.836 429.099 809.703 431.641 811.677C433.301 812.965 434.731 814.69 436.103 816.274C440.123 826.45 463.109 854.47 471.858 863.209C468.746 854.762 460.928 831.592 464.384 823.741C464.795 822.808 465.508 821.919 466.486 821.542C468.435 820.791 470.871 821.926 472.52 822.91C477.763 826.038 481.735 830.967 486.131 835.11L486.707 834.925C486.971 836.58 505.215 855.708 507.722 858.03C508.332 851.563 507.964 844.847 508.115 838.338C508.76 810.447 507.159 782.191 509.218 754.4C509.611 753.804 509.331 754.133 510.196 753.549C516.766 759.32 526.295 764.121 534.488 767.033C536.03 766.397 537.62 765.77 538.926 764.705C540.472 763.444 541.365 761.655 541.531 759.677C542.033 753.708 536.223 747.137 532.589 742.923C537.263 745.963 542.024 749.161 547.314 751.032C552.892 753.004 556.878 752.797 562.073 750.267C562.403 749.032 562.605 747.772 562.639 746.491C562.811 739.872 556.342 734.07 552.031 729.784C560.183 731.687 568.479 733.178 576.565 735.32C578.467 734.971 580.44 734.554 582.209 733.749C584.327 732.785 586.328 731.096 587.059 728.821C588.179 725.337 586.575 722.417 585.068 719.38C586.426 717.195 591.821 715.515 594.284 714.441C602.321 708.963 610.12 703.284 617.75 697.25ZM617.75 697.25C610.12 703.284 602.321 708.963 594.284 714.441C591.821 715.515 586.426 717.195 585.068 719.38C586.575 722.417 588.179 725.337 587.059 728.821C586.328 731.096 584.327 732.785 582.209 733.749C580.44 734.554 578.467 734.971 576.565 735.32C568.479 733.178 560.183 731.687 552.031 729.784C556.342 734.07 562.811 739.872 562.639 746.491C562.605 747.772 562.403 749.032 562.073 750.267C556.878 752.797 552.892 753.004 547.314 751.032C542.024 749.161 537.263 745.963 532.589 742.923C536.223 747.137 542.033 753.708 541.531 759.677C541.365 761.655 540.472 763.444 538.926 764.705C537.62 765.77 536.03 766.397 534.488 767.033C526.295 764.121 516.766 759.32 510.196 753.549C509.331 754.133 509.611 753.804 509.218 754.4C511.546 757.531 514.051 760.931 517.354 763.104C524.12 767.556 532.713 767.891 539.82 771.843C554.001 779.727 566.312 790.923 580.471 798.812C579.253 817.006 575.565 840.478 579.252 858.041C585.087 848.96 583.751 841.054 593.971 834.281C594.666 830.062 594.872 825.744 595.375 821.493C596.2 814.531 597.25 807.548 597.668 800.549C622.905 799.99 648.341 802.712 673.026 795.756C663.732 787.739 654.573 780.587 647.104 770.681C646.366 769.058 645.729 767.849 645.847 766.039C646.246 765.426 646.317 764.987 647.075 764.78C651.742 763.502 659.572 770.294 664 771.963C672.325 770.418 687.806 769.779 696.691 769.302C688.068 760.879 678.905 752.804 669.941 744.743C661.362 736.396 653.239 727.489 646.14 717.844C636.162 718.34 623.235 719.463 613.541 717.382C614.458 710.562 616.816 704.052 617.75 697.25ZM361.588 778.465C345.228 793.349 326.44 799.424 308.781 811.482C309.821 818.867 310.632 826.325 311.832 833.681C315.749 837.496 320.092 840.779 323.967 844.673C323.36 843.565 322.811 842.45 322.325 841.283C321.041 838.2 319.294 833.011 321.162 829.867C321.77 828.843 322.421 828.522 323.585 828.312C330.208 827.121 344.672 841.341 349.514 845.221C353.613 848.506 357.837 851.578 362.154 854.568C360.434 851.102 359.077 847.237 357.858 843.558C356.416 839.204 352.688 828.17 355.602 824.029C356.286 823.057 357.258 822.693 358.424 822.781C366.945 823.418 387.15 851.11 393.206 859.126C390.343 848.129 383.808 836.024 382.391 825.079C382.004 822.091 382.017 819.444 383.915 817.004C385.191 816.217 386.119 815.958 387.603 816.173C398.337 817.727 421.8 843.903 428.49 852.286C425.791 845.319 423.739 837.671 422.259 830.35C420.833 823.296 419.479 816.48 423.672 810.152C422.891 800.975 421.935 791.776 421.458 782.578C402.627 787.255 379.281 787.026 361.588 778.465ZM507.722 858.03L508.38 858.216C509.767 855.45 510.192 851.412 510.806 848.329C513.143 836.593 515.145 825.008 521.948 814.837C523.58 812.397 526.105 809.118 528.94 808.053C530.081 807.624 530.545 807.805 531.691 808.067C533.792 809.855 534.09 812.734 534.288 815.339C535.116 826.261 533.317 838.701 531.48 849.498C534.503 842.691 540.999 827.335 547.995 824.319C549.001 823.886 550.075 823.707 551.133 824.08C552.946 824.718 553.922 826.632 554.505 828.33C556.766 834.908 556.424 846.98 556.061 854.041C558.562 849.487 563.197 839.892 568.524 838.549C569.754 838.239 570.818 838.292 571.859 839.091C577.136 843.143 575.199 855.678 576.752 861.56C577.813 860.461 578.5 859.366 579.252 858.041C575.565 840.478 579.253 817.006 580.471 798.812C566.312 790.923 554.001 779.727 539.82 771.843C532.713 767.891 524.12 767.556 517.354 763.104C514.051 760.931 511.546 757.531 509.218 754.4C507.159 782.191 508.76 810.447 508.115 838.338C507.964 844.847 508.332 851.563 507.722 858.03ZM673.026 795.756C648.341 802.712 622.905 799.99 597.668 800.549C597.25 807.548 596.2 814.531 595.375 821.493C594.872 825.744 594.666 830.062 593.971 834.281C595.363 834.93 596.272 835.318 597.052 836.738C599.201 840.654 596.45 846.731 595.05 850.547C604.957 839.343 612.521 820.798 626.866 814.926C628.104 816.225 629.081 817.423 630.013 818.959C634.593 819.243 638.64 818.161 642.867 816.571C644.59 815.072 646.674 812.618 648.814 811.91C650.054 813.017 650.017 815.273 650.18 816.908L650.875 817.246C657.906 817.871 664.936 818.136 671.988 818.395C675.877 816.055 680.212 811.439 683.158 807.956C684.042 806.911 684.904 805.988 685.909 805.058C682.651 801.418 677.149 798.475 673.026 795.756ZM692.775 811.141C689.332 819.049 684.815 826.415 681.413 834.355C684.492 832.132 691.501 828.253 692.095 824.353C692.117 824.206 692.119 824.056 692.13 823.907C693.083 819.914 694.626 815.379 694.645 811.276L694.024 810.652L692.775 811.141ZM715.425 819.714C712.837 826.232 710.035 832.32 706.416 838.352C710.961 833.91 715.389 829.353 719.833 824.81C718.613 822.864 717.026 821.341 715.425 819.714ZM648.541 839.073C647.753 843.694 647.141 848.437 645.971 852.977C649.262 848.174 653.59 843.856 656.251 838.671C653.741 839.081 651.084 839.001 648.541 839.073Z"/>
	<path fill="#F56799" d="M718.133 814.79C721.359 813.455 730.61 813.518 734.321 813.768C729.371 817.23 724.812 821.511 719.833 824.81C718.613 822.864 717.026 821.341 715.425 819.714C716.49 818.213 717.275 816.421 718.133 814.79Z"/>
	<path fill="#F56799" d="M630.013 818.959C634.593 819.243 638.64 818.161 642.867 816.571C637.028 825.161 630.765 833.948 624.395 842.142C627.129 834.564 628.769 826.904 630.013 818.959Z"/>
	<path fill="#F56799" d="M648.541 839.073C648.764 832.824 648.207 823.279 649.94 817.41L650.875 817.246C657.906 817.871 664.936 818.136 671.988 818.395C671.517 819.17 656.475 838.514 656.251 838.671C653.741 839.081 651.084 839.001 648.541 839.073Z"/>
	<path fill="#F56799" d="M617.75 697.25C616.816 704.052 614.458 710.562 613.541 717.382C623.235 719.463 636.162 718.34 646.14 717.844C653.239 727.489 661.362 736.396 669.941 744.743C678.905 752.804 688.068 760.879 696.691 769.302C687.806 769.779 672.325 770.418 664 771.963C659.572 770.294 651.742 763.502 647.075 764.78C646.317 764.987 646.246 765.426 645.847 766.039C645.729 767.849 646.366 769.058 647.104 770.681C654.573 780.587 663.732 787.739 673.026 795.756C648.341 802.712 622.905 799.99 597.668 800.549C597.25 807.548 596.2 814.531 595.375 821.493C594.872 825.744 594.666 830.062 593.971 834.281C583.751 841.054 585.087 848.96 579.252 858.041C575.565 840.478 579.253 817.006 580.471 798.812C566.312 790.923 554.001 779.727 539.82 771.843C532.713 767.891 524.12 767.556 517.354 763.104C514.051 760.931 511.546 757.531 509.218 754.4C509.611 753.804 509.331 754.133 510.196 753.549C516.766 759.32 526.295 764.121 534.488 767.033C536.03 766.397 537.62 765.77 538.926 764.705C540.472 763.444 541.365 761.655 541.531 759.677C542.033 753.708 536.223 747.137 532.589 742.923C537.263 745.963 542.024 749.161 547.314 751.032C552.892 753.004 556.878 752.797 562.073 750.267C562.403 749.032 562.605 747.772 562.639 746.491C562.811 739.872 556.342 734.07 552.031 729.784C560.183 731.687 568.479 733.178 576.565 735.32C578.467 734.971 580.44 734.554 582.209 733.749C584.327 732.785 586.328 731.096 587.059 728.821C588.179 725.337 586.575 722.417 585.068 719.38C586.426 717.195 591.821 715.515 594.284 714.441C602.321 708.963 610.12 703.284 617.75 697.25ZM669.941 744.743C648.307 748.564 627.169 749.508 605.216 748.05C603.744 756.731 601.731 765.357 600.629 774.09C616.112 772.824 631.634 772.113 647.104 770.681C646.366 769.058 645.729 767.849 645.847 766.039C646.246 765.426 646.317 764.987 647.075 764.78C651.742 763.502 659.572 770.294 664 771.963C672.325 770.418 687.806 769.779 696.691 769.302C688.068 760.879 678.905 752.804 669.941 744.743ZM562.073 750.267C568.422 757.266 577.114 761.197 584.416 766.935C586.73 759.413 587.589 751.357 589.038 743.622C584.716 741.215 580.019 738.937 576.565 735.32C568.479 733.178 560.183 731.687 552.031 729.784C556.342 734.07 562.811 739.872 562.639 746.491C562.605 747.772 562.403 749.032 562.073 750.267ZM585.068 719.38C586.816 719.923 589.237 720.729 591.037 719.978C593.198 719.075 593.679 716.44 594.284 714.441C591.821 715.515 586.426 717.195 585.068 719.38Z"/>
	<path fill="#069966" d="M500.095 192.772C498.894 173.105 496.051 156.294 502.049 136.916C503.257 133.014 504.656 128.661 507.404 125.549C508.424 124.394 510.485 122.631 512.11 122.721C513.739 122.811 515.006 123.996 515.944 125.238C522.897 134.445 518.265 161.779 516.292 173.058C515.219 179.197 513.881 185.377 513.256 191.576C519.939 188.111 533.836 178.588 541.069 180.79C542.231 181.837 542.736 182.573 542.753 184.188C542.829 191.855 531.802 202.107 526.648 206.94C522.393 210.93 517.799 214.561 513.561 218.562L513.045 224.94C522.16 222.442 547.965 213.165 556.046 217.338C556.84 218.372 557.133 218.617 556.981 220C556.045 228.526 522.383 250.818 513.857 255.823C513.376 256.105 512.889 256.371 512.397 256.636L512.52 264.619C523.59 263.514 534.705 261.782 545.358 258.473C552.8 256.162 560.285 252.712 567.923 251.127C570.213 250.652 572.167 250.432 574.229 251.699C575.031 253.087 575.211 253.982 574.755 255.557C571.845 265.588 556.397 276.803 547.52 281.276C541.609 284.254 535.826 285.915 529.317 286.966C526.856 291.724 524.395 295.023 519.029 296.683C516.394 297.499 513.564 297.719 510.832 298.018L510.727 310.904C527.411 312.109 544.443 310.114 560.412 304.962C567.948 302.53 585.308 290.422 592.363 292.93C593.052 293.978 593.211 294.446 592.939 295.708C591.009 304.647 576.404 319.485 568.428 324.056C563.822 326.696 558.901 328.064 553.949 329.854C552.633 332.959 551.777 335.371 548.437 336.75C542.243 339.307 533.271 336.768 526.733 336.191C529.277 339.253 532.36 342.424 532.117 346.654C531.551 347.908 531.01 348.643 529.708 349.152C524.255 351.282 516.383 347.819 511.245 345.819C511.116 353.83 510.901 361.85 510.889 369.862C536.894 364.637 564.026 363.312 589.571 356.217C594.544 354.836 609.327 349.529 613.572 351.43C614.325 352.499 614.713 353.081 614.569 354.436C613.895 360.752 602.032 371.516 596.908 375.052C588.781 380.662 580.286 382.419 570.568 380.566C569.19 380.303 567.82 380.004 566.451 379.7C569.119 381.852 573.128 384.535 573.435 388.278C573.563 389.842 572.934 391.565 571.847 392.689C569.987 394.611 566.899 394.846 564.384 394.728C556.431 394.352 548.658 391.025 541.443 387.934C544.084 390.383 549.534 394.631 549.71 398.553C549.77 399.874 549.417 400.955 548.508 401.935C546.789 403.787 544.125 403.975 541.764 403.827C531.569 403.187 520.317 396.939 511.788 391.585C515.769 395.321 524.047 402.665 523.799 408.654C523.75 409.844 523.347 410.945 522.341 411.663C519.372 413.781 512.965 411.992 509.7 411.218C510.098 421.392 509.619 431.677 509.607 441.865C521.622 439.996 533.52 437.424 545.469 435.184L591.874 426.956C600.236 425.488 608.737 423.202 617.157 422.266C619.109 422.049 621.96 421.579 623.688 422.669C624.446 423.87 624.784 424.202 624.582 425.68C623.732 431.869 607.101 442.655 602.032 445.558C597.719 448.028 593.229 450.189 588.497 451.727C585.828 455.909 582.985 458.073 578.052 459.112C570.85 460.629 562.508 459.337 555.235 458.866C558.929 461.294 564.012 464.73 564.919 469.349C565.153 470.542 565.02 471.252 564.488 472.318C561.794 474.788 557.815 474.603 554.355 474.434C544.729 473.964 533.927 471.106 524.893 467.692C529.087 470.574 538.954 477.549 539.72 482.977C539.884 484.14 539.663 485.193 538.765 486.001C536.109 488.396 530.441 487.491 527.239 486.82C520.78 485.465 514.919 482.764 509.04 479.847C509.423 492.324 509.006 504.813 508.973 517.295C530.276 507.432 553.004 501.572 575.185 494.172C584.89 490.934 594.202 486.336 604.014 483.496C606.97 482.64 612.235 480.958 615.237 481.762C616.172 482.6 616.736 483.236 616.813 484.557C617.048 488.628 611.729 493.411 608.923 495.947C606.894 497.782 604.801 499.552 602.721 501.329L589.881 510.964C590.294 513.443 590.536 515.39 589.993 517.873C592.444 525.201 606.808 537.298 613.034 542.677C618.653 539.709 629.893 532.139 636.075 533.468C636.892 534.253 637.213 534.399 637.265 535.602C637.48 540.497 631.602 546.333 628.479 549.681C623.993 553.846 619.394 558.32 615.371 562.927C609.106 568.497 602.333 573.482 595.573 578.43C592.116 580.411 588.674 582.426 585.136 584.26C586.533 586.068 588.423 588.714 587.912 591.158C587.634 592.483 586.788 593.246 585.64 593.852C579.203 597.244 571.581 594.044 565.002 593.597L564.184 594.324C564.555 598.477 570.973 604.059 567.343 608.03C565.012 610.581 559.446 610.576 556.306 610.545C562.235 619.297 568.468 626.481 576.193 633.696C583.761 631.479 591.265 629.201 598.638 626.394C606.192 623.518 631.189 610.879 636.854 611.056C637.733 611.718 638.194 611.989 638.226 613.226C638.445 621.677 617.86 636.882 612.246 643.248C608.353 645.506 600.996 648.836 597.977 651.777C598.893 652.513 599.795 653.202 600.775 653.854C599.564 657.605 598.529 660.807 594.757 662.73C587.08 666.646 573.701 660.297 566.271 657.649C569.221 661.382 576.769 670.438 575.7 675.597C575.435 676.878 574.745 677.555 573.613 678.096C569.626 680.004 564.788 678.744 560.92 677.149C554.319 674.426 546.26 667.974 538.99 668.577L538.495 669.044C538.772 675.661 556.61 688.276 548.778 696.176C547.33 697.636 545.236 697.99 543.26 697.843C534.25 697.169 524.398 688.117 517.446 682.815C518.699 685.204 520.957 688.666 519.941 691.473C519.522 692.63 518.548 693.245 517.42 693.578C514.718 694.374 511.082 693.023 508.471 692.275L508.518 703.358C515.068 707.004 521.976 709.903 528.535 713.472C552.38 705.301 575.606 695.881 598.636 685.623C606.117 682.291 613.475 678.652 620.889 675.17C623.933 673.74 626.949 671.989 630.147 670.936C631.952 670.341 633.074 670.181 634.794 671.029C635.385 671.963 635.675 672.312 635.649 673.463C635.505 679.806 624.962 690.224 620.644 694.607C619.602 695.442 618.617 696.224 617.75 697.25C610.12 703.284 602.321 708.963 594.284 714.441C591.821 715.515 586.426 717.195 585.068 719.38C586.575 722.417 588.179 725.337 587.059 728.821C586.328 731.096 584.327 732.785 582.209 733.749C580.44 734.554 578.467 734.971 576.565 735.32C568.479 733.178 560.183 731.687 552.031 729.784C556.342 734.07 562.811 739.872 562.639 746.491C562.605 747.772 562.403 749.032 562.073 750.267C556.878 752.797 552.892 753.004 547.314 751.032C542.024 749.161 537.263 745.963 532.589 742.923C536.223 747.137 542.033 753.708 541.531 759.677C541.365 761.655 540.472 763.444 538.926 764.705C537.62 765.77 536.03 766.397 534.488 767.033C526.295 764.121 516.766 759.32 510.196 753.549C509.331 754.133 509.611 753.804 509.218 754.4C507.159 782.191 508.76 810.447 508.115 838.338C507.964 844.847 508.332 851.563 507.722 858.03C505.215 855.708 486.971 836.58 486.707 834.925L486.131 835.11C481.735 830.967 477.763 826.038 472.52 822.91C470.871 821.926 468.435 820.791 466.486 821.542C465.508 821.919 464.795 822.808 464.384 823.741C460.928 831.592 468.746 854.762 471.858 863.209C463.109 854.47 440.123 826.45 436.103 816.274C434.731 814.69 433.301 812.965 431.641 811.677C429.099 809.703 426.726 809.836 423.672 810.152C422.891 800.975 421.935 791.776 421.458 782.578C402.627 787.255 379.281 787.026 361.588 778.465C345.228 793.349 326.44 799.424 308.781 811.482C309.821 818.867 310.632 826.325 311.832 833.681L303.851 832.763C302.768 826.075 301.782 819.368 300.837 812.659C284.368 810.506 264.624 809.399 249.559 802.173C244.757 799.869 236.911 795.057 235.51 789.604C235.192 788.367 235.163 787.334 235.908 786.238C237.189 784.354 239.974 783.462 242.083 783.019C256.01 780.095 287.472 792.409 298.938 800.113C297.72 790.951 296.286 781.814 294.913 772.674C288.573 771.868 282.149 770.284 275.869 769.057C261.235 766.2 230.912 761.782 221.77 749.438C220.735 748.04 220.234 746.924 220.495 745.164C221.072 744.243 221.594 743.743 222.615 743.315C234.056 738.518 280.654 753.396 293.321 758.236C291.846 751.04 290.762 743.773 289.234 736.579C272.278 733.073 243.489 724.181 232.49 710.58C231.542 709.408 230.876 708.314 231.055 706.752C231.747 705.826 232.01 705.47 233.13 705.033C242.426 701.399 277.915 719.467 287.899 724.165C286.542 716.199 284.717 708.291 283.64 700.282C262.765 694.642 236.153 692.137 221.114 674.833C219.583 673.07 217.596 670.953 217.776 668.482C218.259 667.788 218.104 667.782 218.79 667.486C227.587 663.696 270.455 681.696 280.322 686.24C279.024 679.168 278.034 672.304 275.888 665.409C263.299 660.51 236.105 655.344 227.539 646.491C226.507 645.424 225.851 644.514 225.884 643.017C226.352 642.329 226.686 642.083 227.46 641.717C236.781 637.3 263.829 644.919 273.1 647.953C271.666 642.555 269.881 637.229 268.221 631.895C257.919 628.573 245.509 625.564 236.34 619.796C234.057 618.36 232.063 616.794 231.399 614.079C231.711 613.333 231.693 612.924 232.448 612.516C238.855 609.054 257.954 614.454 264.891 616.613C263.753 613.448 262.574 610.466 260.97 607.506C253.655 603.915 238.314 597.046 233.798 590.692C233.029 589.61 233.015 589.123 233.236 587.852C233.91 587.097 234.617 586.8 235.587 586.533C241.721 584.847 249.881 588.209 255.259 591.113C251.844 580.769 237.991 552.025 241.264 541.96C241.78 540.372 242.537 540.001 243.933 539.368C244.893 539.379 245.444 539.465 246.322 539.909C255.375 544.491 266.892 581.612 270.327 592.268C272.942 586.925 276.875 580.527 281.676 576.881C282.955 575.91 284.052 575.367 285.699 575.608C286.724 576.496 287.134 577.021 287.366 578.394C288.889 587.372 279.109 599.216 274.094 605.966C274.492 610.117 275.211 614.127 276.034 618.213C279.565 612.351 283.862 606.896 288.868 602.22C291.347 599.905 295.185 596.394 298.833 596.889C300.029 597.051 301.012 597.708 301.594 598.769C302.713 600.808 302.222 603.672 301.617 605.786C298.459 616.837 288.099 627.319 278.225 632.664L282.113 649.241C287.485 643.871 307.766 625.016 314.133 623.233C315.493 622.853 316.045 622.982 317.274 623.606C317.847 624.811 317.914 625.635 317.751 626.93C315.69 643.301 297.261 656.245 285.181 665.374C286.487 671.346 287.642 677.359 288.857 683.351C301.202 671.486 311.378 657.299 325.406 647.116C327.495 645.6 331.293 643.026 334.014 643.878C334.723 644.1 335.473 644.551 335.849 645.205C336.884 647.006 336.156 648.999 335.627 650.841C345.789 651.879 355.804 652.017 366 652.362C372.31 652.575 378.596 653.078 384.914 652.942C377.577 648.591 370.231 644.189 363.375 639.098C358.452 635.441 353.908 630.876 348.621 627.787C338.858 625.634 324.584 623.26 316.255 617.891C314.046 616.467 312.182 614.801 311.636 612.157C311.957 611.046 312.053 610.554 312.94 609.747C319.902 603.412 352.068 606.746 361.684 607.074C369.345 607.335 377.013 607.384 384.678 607.445L380.748 595.104C359.602 593.239 328.655 590.87 310.209 580.072C308.426 579.028 306.301 577.203 306.063 574.986C305.922 573.677 306.335 572.807 307.293 571.95C314.131 565.839 348.894 568.106 358.415 568.584C357.408 567.507 356.901 566.885 356.423 565.447C356.558 564.681 356.489 564.191 357.064 563.61C359.834 560.811 367.512 561.489 371.314 561.462C378.487 562.344 385.653 563.256 392.853 563.889L390.062 556.923C404.799 541.396 418.349 532.041 428.438 512.322C424.34 512.258 418.69 512.77 415.272 510.077C413.326 508.544 413.041 506.912 412.803 504.547C415.389 502.373 417.673 499.448 419.962 496.944C413.318 497.124 406.709 497.209 400.064 497.054C397.809 496.175 394.65 495.199 393.801 492.617C392.839 489.689 394.969 486.809 396.376 484.406C391.651 482.85 387.202 481.433 383.107 478.532C380.522 474.431 378.353 470.097 376.703 465.54C376.744 464.549 376.661 463.144 376.958 462.213C377.374 460.908 378.327 460.713 379.446 460.173C391.14 462.87 401.071 469.375 412.201 473.532C437.725 483.064 466.052 489.692 489.969 502.905C490.346 485.361 491.476 467.666 491.345 450.138C484.414 455.664 474.524 465.004 464.827 463.963C463.812 463.854 462.668 463.406 462.04 462.589C460.911 461.119 460.94 459.399 461.251 457.654C462.266 451.939 467.076 446.927 470.861 442.794C462.711 448.113 449.922 456.438 439.532 454.117C438.025 453.781 436.555 453.101 435.739 451.708C434.916 450.303 435.014 448.7 435.552 447.231C436.99 443.304 440.409 440.748 443.651 438.333C436.299 441.557 425.521 446.411 417.508 443.172C415.389 442.316 412.937 440.46 412.29 438.151C411.656 435.887 415.191 435.156 413.751 432.848C410.615 431.142 407.245 429.617 404.282 427.635C395.615 421.839 384.578 411.259 381.724 400.84C381.354 399.49 381.464 398.825 382.002 397.568C383.501 396.58 384.757 396.604 386.474 396.928C394.115 398.374 402.338 404.288 409.399 407.706C414.463 410.158 419.8 411.982 425.218 413.479C447.107 419.525 470.271 419.165 492.499 423.627C492.924 411.198 492.763 398.454 493.825 386.083C487.23 391.605 476.953 399.49 467.797 398.561C465.992 398.377 463.832 397.739 462.711 396.209C461.934 395.148 461.838 393.874 462.139 392.634C463.472 387.147 469.014 382.638 473.372 379.533C464.253 383.744 444.039 388.112 434.352 384.696C432.298 383.971 431.162 383.244 430.193 381.286C430.039 379.27 430.522 378.054 431.863 376.567C433.866 374.345 436.363 373.443 439.082 372.437L439.051 372.049C430.736 373.284 420.853 376.167 413.416 370.351C410.661 368.196 409.291 365.187 408.944 361.762C408.862 360.962 408.826 360.16 408.801 359.356C406.005 357.571 402.64 356.705 399.945 354.876C395.494 351.856 389.152 343.06 387.809 337.795C387.514 336.636 387.606 335.737 387.881 334.593C388.657 333.448 389.356 332.755 390.752 332.496C396.607 331.41 406.599 339.028 412.167 341.331C416.268 343.027 420.598 344.392 424.816 345.771C447.295 353.122 471.573 355.816 494.913 359.179C495.184 351.62 495.424 344.068 495.5 336.504C490.592 339.129 484.362 342.685 478.605 340.924C477.416 340.56 476.205 339.817 475.712 338.631C475.031 336.995 475.498 335.377 476.282 333.867C477.534 331.455 479.522 329.211 481.43 327.311C474.456 330.229 464.256 334.373 456.734 331.427C453.495 330.158 451.1 327.361 447.981 325.864C444.644 324.262 440.902 323.568 437.638 321.8C427.865 316.506 417.25 305.258 413.054 294.926C412.133 292.659 411.125 289.461 412.318 287.138C412.762 286.273 413.554 285.737 414.497 285.508C420.379 284.082 428.371 291.662 433.522 294.064C436.613 295.505 440.192 296.495 443.439 297.569C460.4 303.179 478.541 305.127 496.355 304.905C496.465 299.605 496.641 294.297 496.54 288.996C491.637 291.572 487.758 294.064 482.063 292.176C479.315 291.265 476.524 289.465 475.306 286.736C474.434 284.783 474.725 283.196 475.329 281.227C472.668 279.398 466.883 279.3 463.6 278.206C453.029 274.685 440.208 261.174 438.151 249.904C437.935 248.72 437.931 247.566 438.6 246.517C439.092 245.744 440.121 245.297 440.998 245.154C442.917 244.842 444.932 245.327 446.75 245.914C452.086 247.637 457.096 250.544 462.31 252.63C473.668 257.175 485.85 261.259 497.774 264.041C497.779 261.371 497.767 258.701 497.87 256.032C485.563 250.041 459.228 232.41 454.554 219.408C453.874 217.516 453.699 215.555 454.65 213.723C455.141 212.778 455.809 212.237 456.797 211.857C463.873 209.133 491.557 223.279 498.877 226.487C499.148 224.501 499.518 222.475 499.573 220.47C491.37 213.11 471.607 194.895 471.375 183.528C471.339 181.74 471.925 180.683 473.028 179.342C474.814 178.348 476.151 178.345 478.07 178.861C485.954 180.981 493.681 187.98 500.095 192.772ZM358.871 734.017C354.448 738.496 350.08 743.009 345.16 746.954C332.688 756.954 317.568 764.361 303.695 772.229C304.985 780.575 305.708 789.004 307.197 797.316C318.818 786.976 331.922 777.931 346.089 771.446C350.862 769.616 358.315 766.448 363.312 768.866C364.248 769.319 364.423 769.741 365.031 770.544C365.441 773.272 364.181 775.137 362.585 777.257C362.271 777.674 361.935 778.075 361.588 778.465C379.281 787.026 402.627 787.255 421.458 782.578C421.935 791.776 422.891 800.975 423.672 810.152C426.726 809.836 429.099 809.703 431.641 811.677C433.301 812.965 434.731 814.69 436.103 816.274C435.891 810.438 436.219 804.589 436.084 798.751C435.733 783.627 435.018 768.469 434.472 753.349C429.552 755.278 424.738 757.127 419.342 756.676C417.452 755.333 416.419 753.843 415.236 751.868C414.106 748.133 414.028 744.199 413.793 740.33C407.526 742.624 401.093 741.579 394.624 740.963C382.96 740.379 370.173 737.081 358.871 734.017ZM442.407 511.063C437.752 511.414 433.061 511.664 428.438 512.322C418.349 532.041 404.799 541.396 390.062 556.923L392.853 563.889C395.512 564.302 398.205 564.651 400.849 565.144C411.807 567.425 423.857 570.303 434.995 571.124L440.025 571.789C447.381 574.16 455.293 575.077 462.781 577.167C471.203 579.357 479.267 582.031 487.473 584.925C488.494 565.728 488.609 546.11 488.513 526.878C483.418 529.737 475.169 535.094 469.055 533.705C467.568 533.367 466.381 532.55 465.675 531.178C463.586 527.117 466.599 520.647 467.999 516.749C463.562 518.436 459.118 520.193 454.555 521.51C450.772 522.601 443.24 524.539 439.865 521.987C439.208 521.491 438.802 520.884 438.668 520.086C438.177 517.173 440.675 513.281 442.407 511.063ZM434.472 753.349C435.018 768.469 435.733 783.627 436.084 798.751C436.219 804.589 435.891 810.438 436.103 816.274C440.123 826.45 463.109 854.47 471.858 863.209C468.746 854.762 460.928 831.592 464.384 823.741C464.795 822.808 465.508 821.919 466.486 821.542C468.435 820.791 470.871 821.926 472.52 822.91C477.763 826.038 481.735 830.967 486.131 835.11L486.707 834.925C486.287 827.721 486.598 820.354 486.61 813.13C486.643 793.442 487.225 773.542 486.33 753.887C476.256 760.217 463.04 770.602 450.688 770.681C448.057 770.698 445.232 770.253 443.326 768.278C442.162 767.072 441.637 765.547 441.809 763.88C442.526 756.926 452.699 748.522 457.663 744.344C446.612 744.883 444.008 749.013 434.981 753.124C434.812 753.201 434.642 753.274 434.472 753.349ZM589.993 517.873C580.497 521.037 572.36 522.479 562.309 522.208C565.21 525.01 569.605 528.745 569.874 532.975C569.248 534.431 568.675 535.155 567.148 535.724C558.17 539.069 539.926 532.149 530.289 530.353C530.396 530.509 530.5 530.667 530.61 530.822C533.33 534.655 543.983 542.885 543.315 547.48C543.087 549.054 542.125 550.243 540.78 551.011C536.499 553.454 530.645 552.163 526.202 550.741C519.941 548.738 514.271 545.388 508.773 541.849C508.732 556.669 508.133 571.556 508.485 586.364C524.492 579.717 540.154 572.378 556.266 565.936C575.086 558.41 594.904 551.701 613.034 542.677C606.808 537.298 592.444 525.201 589.993 517.873ZM322.959 669.242C313.302 680.255 303.062 689.474 290.768 697.519C292.805 706.414 294.388 715.366 296.271 724.286C304.176 710.491 326.424 681.991 342.486 677.9C344.158 677.474 345.321 677.513 346.953 678.025C347.934 679.025 348.281 679.276 348.364 680.76C348.55 684.067 344.962 688.331 343.192 690.935C363.463 691.818 383.776 692.232 403.995 694.01C402.421 688.366 400.924 682.777 399.806 677.02C374.102 675.944 348.171 674.637 322.959 669.242ZM425.461 640.893L434.04 643.894C446.287 650.554 459.892 655.04 472.4 661.348C477.099 663.249 481.815 665.319 486.344 667.593C487.137 649.04 487.447 629.892 486.843 611.341C482.586 615.776 478.273 620.291 472.996 623.532C469.762 625.518 465.207 627.67 461.33 626.579C459.979 626.199 459.02 625.411 458.358 624.171C456.298 620.313 458.982 612.902 460.054 608.939C454.619 612.797 450.284 618.469 445.386 623.002C438.973 628.938 431.232 634.411 425.461 640.893ZM508.53 620.347C508.505 628.274 508.611 636.224 508.449 644.148C513.33 644.912 518.078 646.364 522.832 647.68C526.921 647.568 531.185 646.101 535.207 645.262L553.547 640.136C560.942 637.725 568.646 635.576 576.193 633.696C568.468 626.481 562.235 619.297 556.306 610.545C551.909 608.896 535.253 601.942 531.215 603.74C531.048 603.815 530.896 603.919 530.737 604.009C530.688 609.056 545.966 619.375 540.543 624.555C537.525 627.438 528.698 626.951 524.727 626.38C518.984 625.553 513.517 623.256 508.53 620.347ZM328.613 709.523C319.221 719.645 309.732 728.331 298.044 735.803C299.236 743.112 300.167 750.559 301.82 757.776C307.447 752.972 313.026 747.943 319.045 743.635C328.94 736.552 339.81 730.763 350.45 724.905C342.274 720.451 335.445 715.87 328.613 709.523ZM403.774 601.947C405.289 608.574 407.855 614.514 410.561 620.713C415.362 616.204 420.581 612.414 425.532 608.113C428.918 603.78 431.766 599.348 434.262 594.447C423.222 597.791 415.64 601.078 403.774 601.947ZM508.518 703.358C508.446 709.705 508.148 716.155 508.442 722.491L528.535 713.472C521.976 709.903 515.068 707.004 508.518 703.358ZM421.185 674.054C421.948 678.179 422.689 682.289 423.237 686.449C426.848 680.116 431.864 675.12 436.699 669.747C431.4 670.824 426.156 671.856 421.185 674.054ZM485.999 715.01L479.329 724.466L486.272 726.07C485.926 722.436 486.052 718.665 485.999 715.01ZM399.452 584.575C400.07 586.505 400.56 588.78 401.558 590.538C403.208 588.534 405.36 586.797 407.263 585.028C404.652 584.772 402.073 584.647 399.452 584.575Z"/>
	<path fill="#F56799" d="M508.449 644.148C513.33 644.912 518.078 646.364 522.832 647.68C518.55 649.575 513.028 650.091 508.407 650.875C508.235 648.636 508.374 646.39 508.449 644.148Z"/>
	<path fill="#F56799" d="M413.793 740.33C416.912 737.939 420.443 736.593 424.106 735.274C422.174 741.198 418.468 746.568 415.236 751.868C414.106 748.133 414.028 744.199 413.793 740.33Z"/>
	<path fill="#F56799" d="M328.613 709.523C330.61 706.729 332.694 704.082 334.915 701.463C336.58 703.79 338.127 705.59 340.53 707.177C353.825 715.962 382.003 718.97 398.013 723.891C395.252 726.645 390.987 730.027 391.019 734.315C391.039 737.034 392.804 739.133 394.624 740.963C382.96 740.379 370.173 737.081 358.871 734.017C361.173 730.837 363.881 727.951 363.532 723.809C362.909 722.854 362.744 722.415 361.616 722.018C358.055 720.764 353.565 723.403 350.45 724.905C342.274 720.451 335.445 715.87 328.613 709.523Z"/>
	<path fill="#F56799" d="M535.207 645.262C534.353 644.112 533.43 642.844 532.86 641.528C532.205 640.012 531.968 638.369 532.716 636.827C533.397 635.422 534.76 634.112 536.231 633.568C541.553 631.595 548.955 637.784 553.547 640.136L535.207 645.262Z"/>
	<path fill="#F56799" d="M434.04 643.894C434.238 643.9 434.436 643.909 434.635 643.914C439.634 644.028 446.404 643.78 451.102 641.957C457.571 639.447 473.392 622.251 480.125 628.943C482.05 630.857 482.6 633.79 482.494 636.404C482.133 645.365 476.357 653.615 472.4 661.348C459.892 655.04 446.287 650.554 434.04 643.894Z"/>
	<path fill="#F56799" d="M335.627 650.841C345.789 651.879 355.804 652.017 366 652.362C372.31 652.575 378.596 653.078 384.914 652.942C392.214 656.01 399.599 658.689 406.988 661.519C405.035 664.746 400.862 670.135 401.759 673.995C402.013 675.084 402.519 675.882 403.451 676.513C406.362 678.486 412.19 677.269 415.276 676.397C417.258 675.836 419.344 674.971 421.185 674.054C421.948 678.179 422.689 682.289 423.237 686.449C423.485 689.055 423.532 691.57 425.707 693.387C427.698 695.05 430.428 695.196 432.884 694.821C445.205 692.94 454.374 683.54 465.696 679.449L465.368 680.09C462.659 685.279 453.037 694.764 454.022 700.56C454.21 701.667 454.829 702.467 455.804 703.008C460.738 705.747 472.355 700.833 477.027 698.788C480.233 697.385 483.395 695.873 486.524 694.308C486.362 701.178 485.869 708.149 485.999 715.01L479.329 724.466C469.255 721.459 459.41 718.018 449.236 715.301C421.759 707.962 393.959 702.361 365.65 699.452C358.133 698.68 350.291 697.476 342.752 698.336C340.203 698.627 338.028 699.445 335.696 700.436C337.837 697.116 340.397 693.734 343.192 690.935C363.463 691.818 383.776 692.232 403.995 694.01C402.421 688.366 400.924 682.777 399.806 677.02C374.102 675.944 348.171 674.637 322.959 669.242C327.573 663.33 331.369 656.991 335.627 650.841Z"/>
	<path fill="#F56799" d="M380.748 595.104C359.602 593.239 328.655 590.87 310.209 580.072C308.426 579.028 306.301 577.203 306.063 574.986C305.922 573.677 306.335 572.807 307.293 571.95C314.131 565.839 348.894 568.106 358.415 568.584C373.681 576.85 383.069 579.703 399.452 584.575C400.07 586.505 400.56 588.78 401.558 590.538C400.917 592.999 399.37 596.155 400.891 598.561C401.656 599.77 402.806 600.899 403.774 601.947C405.289 608.574 407.855 614.514 410.561 620.713C415.362 616.204 420.581 612.414 425.532 608.113C425.388 610.846 425.105 613.448 427.005 615.691C428.277 617.194 430.107 617.752 432.019 617.786C443.604 617.988 453.697 607.526 463.463 602.633C462.41 604.706 461.454 607.092 460.054 608.939C454.619 612.797 450.284 618.469 445.386 623.002C438.973 628.938 431.232 634.411 425.461 640.893C413.785 635.604 400.714 631.964 388.596 627.702C374.476 622.736 360.368 616.762 345.859 613.064C344.431 612.7 342.719 612.278 341.244 612.617C339.978 612.907 339.767 613.378 339.163 614.396C339.217 619.046 345.514 624.527 348.621 627.787C338.858 625.634 324.584 623.26 316.255 617.891C314.046 616.467 312.182 614.801 311.636 612.157C311.957 611.046 312.053 610.554 312.94 609.747C319.902 603.412 352.068 606.746 361.684 607.074C369.345 607.335 377.013 607.384 384.678 607.445L380.748 595.104Z"/>
	<path fill="#F56799" d="M440.025 571.789C444.357 568.699 454.251 559.596 459.847 560.952C461.434 561.336 462.526 562.242 463.259 563.674C465.339 567.735 464.603 572.212 463.112 576.31C463.007 576.598 462.901 576.885 462.781 577.167C455.293 575.077 447.381 574.16 440.025 571.789Z"/>
	<path fill="#F56799" d="M400.849 565.144L420.487 546.198C425.433 541.337 430.304 535.463 436.106 531.641C438.314 530.186 441.252 528.829 443.961 528.964C445.058 529.018 446.104 529.36 446.846 530.206C449.113 532.789 448.371 538.493 447.777 541.679C445.81 552.238 438.55 561.117 434.995 571.124C423.857 570.303 411.807 567.425 400.849 565.144Z"/>
	<path fill="#F56799" d="M434.472 753.349C435.018 768.469 435.733 783.627 436.084 798.751C436.219 804.589 435.891 810.438 436.103 816.274C434.731 814.69 433.301 812.965 431.641 811.677C429.099 809.703 426.726 809.836 423.672 810.152C422.891 800.975 421.935 791.776 421.458 782.578C402.627 787.255 379.281 787.026 361.588 778.465C361.935 778.075 362.271 777.674 362.585 777.257C364.181 775.137 365.441 773.272 365.031 770.544C364.423 769.741 364.248 769.319 363.312 768.866C358.315 766.448 350.862 769.616 346.089 771.446C345.11 769.481 344.114 767.49 344.546 765.224C344.851 763.622 345.965 762.257 347.314 761.395C350.61 759.288 355.283 759.034 359.077 758.636C380.378 756.407 399.194 760.855 419.888 764.851L419.342 756.676C424.738 757.127 429.552 755.278 434.472 753.349Z"/>
</svg>
