<?xml version="1.0" encoding="UTF-8" standalone="no"?>
<svg
   width="1280"
   height="720"
   version="1.1"
   id="svg12"
   xmlns="http://www.w3.org/2000/svg"
   xmlns:svg="http://www.w3.org/2000/svg">
  <defs
     id="defs12">
    <rect
       x="776.5"
       y="522.83203"
       width="807.36578"
       height="194.242"
       id="rect5" />
  </defs>
  <g
     id="g2"
     transform="translate(15.332993,-178)">
    <path
       fill="#234145"
       d="m 541.629,316.893 c 2.596,-0.195 5.348,-0.439 7.889,0.272 3.682,1.031 6.958,3.522 8.742,6.928 1.639,3.13 1.929,6.95 0.822,10.298 -1.629,4.927 -4.913,7.176 -9.36,9.421 -2.506,0.418 -4.681,0.519 -7.177,-0.068 -3.443,-0.81 -6.364,-2.773 -8.204,-5.821 -1.915,-3.175 -2.544,-7.041 -1.652,-10.647 1.287,-5.204 4.532,-7.731 8.94,-10.383 z"
       id="path2" />
    <path
       fill="#234145"
       d="m 542.469,353.137 c 2.163,-0.162 4.526,-0.157 6.642,0.382 2.865,0.729 5.239,2.455 6.751,5.004 5.574,9.395 4.735,55.148 1.95,66.323 -1.238,4.969 -3.654,6.906 -7.934,9.47 -1.794,0.097 -3.723,0.083 -5.498,-0.217 -3.383,-0.571 -6.279,-2.431 -8.166,-5.296 -4.636,-7.037 -4.031,-55.875 -1.93,-65.653 1.106,-5.148 3.945,-7.25 8.185,-10.013 z"
       id="path3" />
    <path
       fill="#234145"
       d="m 652.674,361.173 c 5.57,-4.522 12.279,-7.875 19.546,-8.333 1.991,-0.125 4.036,0.066 5.54,1.525 1.92,1.864 1.718,7.296 1.72,9.946 0.013,14.74 -12.736,9.423 -20.17,17.122 -7.34,7.601 -6.044,20.804 -5.956,30.598 0.051,7.066 -0.427,12.389 -4.029,18.671 -1.303,0.87 -2.618,1.711 -4.038,2.381 -2.863,1.351 -5.792,1.869 -8.803,0.616 -2.796,-1.164 -4.731,-3.758 -5.889,-6.469 -4.255,-9.971 -3.925,-58.05 0.102,-67.655 1.535,-3.662 4.8,-5.05 8.241,-6.465 6.415,1.034 9.537,3.239 13.736,8.063 z"
       id="path4" />
    <path
       fill="#234145"
       d="m 920.752,360.545 c 1.408,-0.841 2.821,-1.676 4.247,-2.487 5.005,-2.847 11.975,-5.914 17.826,-4.185 1.811,0.535 3.323,1.687 4.169,3.39 1.712,3.442 1.027,9.061 -0.155,12.553 -1.934,5.719 -10.885,7.055 -15.682,9.597 -10.167,5.388 -8.08841,22.19377 -8.76106,32.2427 -0.21134,3.15735 0.47958,7.35539 -0.0439,10.1913 -0.755,4.095 -2.254,8.189 -5.874,10.566 -2.599,1.706 -6.128,2.869 -9.224,2.084 -2.836,-0.719 -5.034,-2.905 -6.526,-5.335 -1.515,-2.466 -2.398,-5.339 -2.857,-8.182 -1.772,-10.973 -1.68,-49.325 1.007,-59.534 1.038,-3.947 3.501,-6.046 6.93,-8.01 2.388,-0.247 4.644,-0.228 6.955,0.473 3.772,1.145 6.139,3.177 7.989,6.636 z"
       id="path5" />
    <path
       fill="#234145"
       d="m 601.509,353.25 c 1.868,-0.084 3.746,-0.168 5.618,-0.139 4.31,0.066 9.235,1.918 12.224,5.104 1.593,1.698 2.501,3.828 2.368,6.186 -0.852,15.185 -20.53,9.957 -28.729,17.357 -3.422,3.089 -4.6,7.133 -4.749,11.626 -0.803,24.203 22.131,12.746 30.455,22.289 1.991,2.283 2.224,5.224 1.896,8.099 -0.484,4.254 -2.761,6.722 -5.997,9.276 -1.499,0.672 -3.106,1.126 -4.702,1.501 -9.484,2.228 -20.196,-0.078 -28.337,-5.269 -9.249,-5.898 -15.571,-15.56 -17.785,-26.261 -2.209,-10.673 -0.517,-22.231 5.591,-31.363 7.419,-11.094 19.599,-15.972 32.147,-18.406 z"
       id="path6" />
    <path
       fill="#234145"
       d="m 801.771,319.033 c 2.587,-0.189 5.193,-0.273 7.787,-0.22 4.198,0.087 9.535,0.948 12.533,4.197 2.051,2.223 2.604,5.03 2.456,7.968 -0.168,3.325 -1.514,5.48 -3.957,7.636 -5.429,6.507 -20.83,1.525 -28.507,4.919 -6.28239,1.56377 -9.00463,19.09149 -7.019,23.991 3.396,1.53 7.762,0.55 11.4,0.344 4.555,-0.26 11.52,-0.09 14.996,3.286 2.222,2.158 2.883,5.469 2.863,8.457 -0.02,2.887 -0.756,5.984 -2.91,8.043 -6.283,6.007 -19.089,4.53 -27.25,4.436 -0.0368,10.29993 0.25772,10.89344 0.695,18.549 0.949,6.392 1.275,13.772 -2.87,19.196 -1.821,2.383 -4.332,3.981 -7.336,4.334 -3.311,0.389 -6.599,-0.609 -9.201,-2.685 -3.985,-3.181 -4.681,-8.018 -5.156,-12.831 -0.898,-9.101 -0.369,-18.328 -0.409,-27.458 -0.06,-13.957 -1.098,-28.736 1.193,-42.532 0.861,-5.187 2.499,-11.565 5.935,-15.644 8.697,-10.322 22.028,-12.825 34.757,-13.986 z"
       id="path7" />
    <path
       fill="#234145"
       d="m 962.951,353.436 c 3.058,-0.348 6.61,0.135 9.454,1.317 3.179,1.32 4.955,3.451 6.282,6.562 6.425,-3.797 12.014,-7.226 19.687,-7.746 7.586,-0.514 15.466,1.255 21.226,6.433 6.56,5.895 8.44,14.561 8.94,23.003 0.53,8.795 2.65,40.458 -2.34,46.079 -0.44,0.973 -0.95,1.758 -1.74,2.484 -2.69,2.449 -6.92,3.14 -10.44,2.893 -16.505,-1.154 -9.3267,-29.0498 -9.7955,-33.97867 -0.2617,-2.75239 -0.3645,-5.63833 -0.1945,-8.30533 0.3,-4.79 -0.95,-9.61 -4.233,-13.233 -2.035,-2.248 -5.061,-4.066 -8.172,-4.084 -2.438,-0.015 -4.523,0.867 -6.276,2.521 -9.286,8.762 -4.374,29.9 -4.959,41.253 -0.239,4.627 -1.32,9.749 -4.997,12.91 -2.474,2.127 -6.233,3.848 -9.556,3.488 -2.588,-0.28 -4.786,-2.085 -6.3,-4.099 -1.983,-2.638 -3.07,-5.911 -3.663,-9.125 -2.18,-11.833 -1.742,-46.041 0.188,-58.497 0.746,-4.809 3.105,-7.077 6.889,-9.875 z"
       id="path8" />
    <path
       fill="#234145"
       d="m 848.447,354.061 c 2.519,-0.304 5.066,-0.412 7.603,-0.46 9.946,-0.191 19.665,3.268 26.813,10.291 5.527,5.43 9.826,13.542 9.805,21.429 -0.011,4.055 -1.386,7.836 -4.355,10.661 -9.25,8.801 -35.267,6.286 -47.469,6.171 3.456,2.642 5.949,6.165 9.532,8.705 10.9844,7.78724 19.32566,-2.21985 28.014,3.117 l 5.995,6.744 c 0.65,1.509 0.51,3.02 -0.245,4.458 -2.03,3.871 -6.891,6.22 -10.832,7.542 -10.865,3.644 -25.297,2.824 -35.504,-2.402 -8.741,-4.475 -14.938,-12.369 -17.922,-21.656 -3.678,-11.45 -2.795,-25.753 2.764,-36.473 5.363,-10.341 15.224,-14.871 25.801,-18.127 z m 6.72,19.376 c -8.79,1.455 -10.14119,5.56859 -14.204,11.771 8.68412,-1.47641 18.5608,2.71449 27.308,-1.237 0.88,-1.433 0.852,-1.515 0.638,-3.192 -2.03,-3.291 -6.307,-6.375 -10.093,-7.211 -1.188,-0.262 -2.443,-0.207 -3.649,-0.131 z"
       id="path9" />
    <path
       fill="#234145"
       d="m 710.098,353.92 c 10.335,-1.275 20.152,0.495 28.679,6.779 8.547,6.299 13.613,15.618 15.203,26.033 1.768,11.586 -0.543,24.471 -7.628,33.973 -6.219,8.341 -15.495,12.522 -25.581,13.906 -0.246,0.069 -0.608,0.182 -0.875,0.226 -8.376,1.36 -18.839,-1.465 -25.794,-6.015 -8.706,-5.695 -14.254,-15.04 -16.353,-25.122 -2.307,-11.085 -0.964,-24.098 5.367,-33.664 6.348,-9.591 16.067,-13.975 26.982,-16.116 z m 3.172,21.75 c -5.017,1.946 -8.12,4.254 -10.305,9.318 -2.391,5.542 -2.305,12.384 -0.042,17.953 1.522,3.747 4.389,7.253 8.194,8.83 2.153,0.892 4.611,0.945 6.915,0.945 5.121,-2.256 8.098,-4.845 10.16,-10.173 2.181,-5.635 2.169,-12.968 -0.402,-18.482 -1.607,-3.446 -4.438,-6.307 -8.047,-7.601 -2.028,-0.728 -4.334,-0.829 -6.473,-0.79 z"
       id="path10" />
    <path
       fill="#234145"
       d="m 477.521,362.499 c 3.352,-3.309 7.019,-5.913 11.451,-7.592 6.869,-2.603 15.13,-2.333 21.83,0.693 5.946,2.686 10,7.522 12.263,13.582 3.568,9.555 4.323,49.696 0.107,58.495 -1.347,2.81 -3.604,5.398 -6.642,6.361 -2.954,0.936 -6.347,1.074 -9.115,-0.461 -13.95,-7.733 -4.737,-39.18 -8.81,-52.435 -0.602,-1.96 -1.624,-3.848 -3.57,-4.749 -2.225,-1.031 -5.112,-0.532 -7.308,0.36 -2.966,1.205 -4.348,3.412 -5.478,6.227 l -0.257,0.649 c -0.448,10.619 2.5,38.853 -3.52,46.64 -1.761,2.279 -4.385,3.883 -7.254,4.233 -3.039,0.371 -6.894,-0.501 -9.286,-2.434 -9.709,-7.844 -3.386,-34.073 -4.881,-45.721 -0.409,-3.183 -1.415,-6.782 -4.212,-8.702 -2.111,-1.449 -5.882,-1.967 -8.34,-1.243 -8.758,2.581 -3.307,42.249 -8.277,52.293 -1.296,2.62 -3.321,5.067 -6.226,5.909 -4.187,1.214 -8.552,-0.79 -12.054,-2.912 -0.287,-0.432 -0.562,-0.865 -0.828,-1.31 -1.412,-2.366 -2.298,-4.71 -2.76,-7.432 -2.001,-11.776 -2.192,-49.761 0.96,-61.259 1.205,-4.399 3.657,-6.366 7.5,-8.527 1.108,-0.032 2.22,-0.014 3.325,0.089 5.369,0.498 8.327,4.03 11.58,7.89 6.254,-4.693 12.57,-8.153 20.62,-7.848 7.526,0.286 14.121,3.734 19.182,9.204 z"
       id="path11" />
    <path
       fill="#089866"
       d="m 273.418,227.397 c 1.703,0.092 3.188,0.551 4.727,1.257 16.301,7.48 19.093,48.81 24.866,64.882 5.724,-14.967 12.078,-28.827 25.032,-38.936 5.426,-4.235 13.247,-8.721 20.388,-7.748 2.641,0.359 5.032,1.547 6.635,3.726 2.409,3.277 2.356,7.617 1.688,11.448 -3.905,22.4 -22.799,37.419 -40.234,49.713 -1.087,10.664 -2.275,21.253 -2.972,31.956 11.798,-13.732 26.025,-24.09 44.197,-27.23 5.378,-0.93 13.829,-1.467 18.438,2.099 1.381,1.068 2.331,2.647 2.538,4.388 0.539,4.543 -3.069,9.549 -5.646,13.015 -14.007,18.849 -34.949,27.803 -57.572,31.152 0.039,10.736 2.117,21.739 3.709,32.335 13.487,-15.029 31.741,-26.465 51.586,-30.727 4.106,-0.882 9.024,-1.377 12.662,1.203 1.951,1.382 3.392,3.499 3.721,5.891 0.683,4.958 -3.261,11.537 -5.994,15.416 -13.353,18.953 -35.778,25.994 -57.544,29.648 2.477,10.21 5.611,20.276 8.582,30.351 8.519,-9.631 17.598,-18.035 29.225,-23.777 5.738,-2.834 13.841,-6.255 20.201,-3.967 2.247,0.808 4.053,2.319 5.04,4.528 1.423,3.183 0.695,6.797 -0.489,9.927 -5.414,14.313 -19.62,23.373 -32.906,29.358 -4.721,1.876 -9.51,3.315 -14.387,4.724 0.982,4.372 2.196,8.715 3.311,13.056 -3.671,2.658 -8.096,5.467 -12.339,7.043 -2.445,0.907 -5.473,1.549 -7.913,0.288 -5.404,-2.792 -10.534,-22.619 -12.146,-28.749 -15.222,3.141 -30.463,3.978 -45.293,-1.429 -9.003,-3.283 -20.439,-9.868 -24.476,-18.882 -1.167,-2.605 -1.644,-5.598 -0.48,-8.298 1.112,-2.58 3.4,-4.223 5.936,-5.231 15.5,-6.163 43.217,3.054 57.47,9.428 -1.718,-9.833 -4.084,-19.48 -5.56,-29.376 -18.831,3.131 -37.027,3.45 -54.259,-5.85 -8.917,-4.813 -19.634,-13.76 -22.471,-23.796 -0.812,-2.872 -0.885,-6.067 0.705,-8.692 1.512,-2.495 4.077,-3.862 6.839,-4.552 18.439,-4.606 50.295,12.589 65.678,21.766 -0.314,-9.372 -1.227,-18.841 -2.135,-28.175 -19.552,-0.249 -37.723,-4.005 -52.758,-17.273 -9.205,-8.123 -18.459,-21.588 -19.101,-34.136 -0.161,-3.143 0.468,-6.635 2.693,-9.003 1.787,-1.901 4.233,-2.699 6.777,-2.784 19.15,-0.639 48.808,30.193 62.376,43.033 0.043,-8.656 0.246,-17.246 1.605,-25.814 -10.694,-5.125 -18.799,-11.062 -25.188,-21.19 -8.314,-13.178 -12.272,-31.266 -8.719,-46.589 2.04,-8.799 6.361,-14.731 13.957,-19.427 z"
       id="path12" />
  </g>
  <text
     xml:space="preserve"
     style="font-size:48px;white-space:pre;inline-size:880.578;fill:#234145;fill-opacity:1;stroke:none;stroke-width:1;stroke-linecap:round;stroke-miterlimit:3.9;stroke-dasharray:none;stroke-opacity:0.557799"
     x="555.73987"
     y="585.86841"
     id="text1"
     transform="translate(-355.1893,-178)"><tspan
       x="555.73987"
       y="585.86841"
       id="tspan8"><tspan
         style="font-family:'Noto Sans';-inkscape-font-specification:'Noto Sans';text-align:center;text-anchor:middle"
         id="tspan7">Minimal JavaScript &amp; TypeScript string </tspan></tspan><tspan
       x="555.73987"
       y="646.33138"
       id="tspan10"><tspan
         style="font-family:'Noto Sans';-inkscape-font-specification:'Noto Sans';text-align:center;text-anchor:middle"
         id="tspan9">templating engine that runs anywhere</tspan></tspan></text>
  <text
     xml:space="preserve"
     style="font-style:normal;font-variant:normal;font-weight:normal;font-stretch:normal;font-size:21.3333px;font-family:'Noto Sans';-inkscape-font-specification:'Noto Sans';text-align:center;text-anchor:middle;fill:#234145;fill-opacity:1;stroke:none;stroke-width:1;stroke-linecap:round;stroke-miterlimit:3.9;stroke-dasharray:none;stroke-opacity:0.557799"
     x="205.09608"
     y="617.33588"
     id="text2"><tspan
       id="tspan2"
       x="205.09608"
       y="617.33588"
       style="font-size:21.3333px;text-align:start;text-anchor:start">No dependencies</tspan><tspan
       x="205.09608"
       y="644.0025"
       id="tspan3"
       style="font-size:21.3333px;text-align:start;text-anchor:start">Core less than 1kb minzipped</tspan><tspan
       x="205.09608"
       y="670.66913"
       style="font-size:21.3333px;text-align:start;text-anchor:start"
       id="tspan4">100% test coverage</tspan><tspan
       x="205.09608"
       y="697.33575"
       style="font-size:21.3333px;text-align:start;text-anchor:start"
       id="tspan5" /></text>
  <text
     xml:space="preserve"
     id="text5"
     style="font-style:normal;font-variant:normal;font-weight:normal;font-stretch:normal;font-size:21.3333px;font-family:'Noto Sans';-inkscape-font-specification:'Noto Sans';text-align:start;white-space:pre;shape-inside:url(#rect5);fill:#234145;fill-opacity:1;stroke:none;stroke-width:1;stroke-linecap:round;stroke-miterlimit:3.9;stroke-dasharray:none;stroke-opacity:0.557799"
     x="199.18901"
     y="0"
     transform="translate(-511.50533)"><tspan
       x="1529.5933"
       y="542.24267"
       id="tspan12"><tspan
         style="text-align:end;text-anchor:end"
         id="tspan11">Node
</tspan></tspan><tspan
       x="1543.6306"
       y="568.9093"
       id="tspan26"><tspan
         style="text-align:end;text-anchor:end"
         id="tspan13">Bun
</tspan></tspan><tspan
       x="1503.9294"
       y="595.57592"
       id="tspan28"><tspan
         style="text-align:end;text-anchor:end"
         id="tspan27">Chrome
</tspan></tspan><tspan
       x="1515.7694"
       y="622.24255"
       id="tspan30"><tspan
         style="text-align:end;text-anchor:end"
         id="tspan29">Firefox
</tspan></tspan><tspan
       x="1526.564"
       y="648.90918"
       id="tspan32"><tspan
         style="text-align:end;text-anchor:end"
         id="tspan31">Safari
</tspan></tspan><tspan
       x="1197.434"
       y="675.5758"
       id="tspan34"><tspan
         style="text-align:end;text-anchor:end"
         id="tspan33">Edge runtime (e.g. Cloudflare workers)</tspan></tspan></text>
</svg>
